<svg width="18" height="18" viewBox="0 0 18 18" fill="none" xmlns="http://www.w3.org/2000/svg">
<path fill-rule="evenodd" clip-rule="evenodd" d="M9 4.5C9.31066 4.5 9.5625 4.75184 9.5625 5.0625V8.4375H12.9375C13.2482 8.4375 13.5 8.68934 13.5 9C13.5 9.31066 13.2482 9.5625 12.9375 9.5625H9C8.68934 9.5625 8.4375 9.31066 8.4375 9V5.0625C8.4375 4.75184 8.68934 4.5 9 4.5Z" fill="#111112"/>
<path fill-rule="evenodd" clip-rule="evenodd" d="M9 3.375C5.8934 3.375 3.375 5.8934 3.375 9C3.375 12.1066 5.8934 14.625 9 14.625C12.1066 14.625 14.625 12.1066 14.625 9C14.625 5.8934 12.1066 3.375 9 3.375ZM2.25 9C2.25 5.27208 5.27208 2.25 9 2.25C12.7279 2.25 15.75 5.27208 15.75 9C15.75 12.7279 12.7279 15.75 9 15.75C5.27208 15.75 2.25 12.7279 2.25 9Z" fill="#111112"/>
<path fill-rule="evenodd" clip-rule="evenodd" d="M13.3752 1.4428C13.5949 1.22313 13.951 1.22313 14.1707 1.4428L16.5572 3.82928C16.7769 4.04895 16.7769 4.40511 16.5572 4.62478C16.3375 4.84445 15.9814 4.84445 15.7617 4.62478L13.3752 2.23829C13.1555 2.01862 13.1555 1.66247 13.3752 1.4428Z" fill="#111112"/>
<path fill-rule="evenodd" clip-rule="evenodd" d="M4.62457 1.4428C4.84424 1.66247 4.84424 2.01862 4.62457 2.23829L2.23808 4.62478C2.01841 4.84445 1.66225 4.84445 1.44258 4.62478C1.22291 4.40511 1.22291 4.04895 1.44258 3.82928L3.82907 1.4428C4.04874 1.22313 4.4049 1.22313 4.62457 1.4428Z" fill="#111112"/>
</svg>
