<svg width="24" height="24" viewBox="0 0 24 24" fill="none" xmlns="http://www.w3.org/2000/svg">
<path fill-rule="evenodd" clip-rule="evenodd" d="M14.8567 6.35973C14.2885 6.35973 13.7435 6.58546 13.3417 6.98725C12.9399 7.38905 12.7142 7.934 12.7142 8.50223C12.7142 8.89665 12.3945 9.2164 12.0001 9.2164C11.6056 9.2164 11.2859 8.89665 11.2859 8.50223C11.2859 7.55519 11.6621 6.64693 12.3318 5.97727C13.0014 5.30761 13.9097 4.9314 14.8567 4.9314H20.5701C20.9489 4.9314 21.3122 5.08188 21.58 5.34975C21.8479 5.61761 21.9984 5.98091 21.9984 6.35973V17.7864C21.9984 18.1652 21.8479 18.5285 21.58 18.7964C21.3122 19.0642 20.9489 19.2147 20.5701 19.2147H14.8567C14.2885 19.2147 13.7435 19.4405 13.3417 19.8423C12.9399 20.2441 12.7142 20.789 12.7142 21.3572C12.7142 21.7517 12.3945 22.0714 12.0001 22.0714C11.6056 22.0714 11.2859 21.7517 11.2859 21.3572C11.2859 20.4102 11.6621 19.5019 12.3318 18.8323C13.0014 18.1626 13.9097 17.7864 14.8567 17.7864H20.5701L20.5701 6.35973L14.8567 6.35973Z" fill="#111112"/>
<path fill-rule="evenodd" clip-rule="evenodd" d="M2.42006 5.34975C2.68792 5.08188 3.05122 4.9314 3.43004 4.9314H9.14338C10.0904 4.9314 10.9987 5.30761 11.6683 5.97727C12.338 6.64693 12.7142 7.55519 12.7142 8.50223V21.3572C12.7142 21.7517 12.3945 22.0714 12 22.0714C11.6056 22.0714 11.2859 21.7517 11.2859 21.3572C11.2859 20.789 11.0601 20.244 10.6584 19.8423C10.2566 19.4405 9.7116 19.2147 9.14338 19.2147H3.43004C3.05123 19.2147 2.68792 19.0642 2.42006 18.7964C2.15219 18.5285 2.00171 18.1652 2.00171 17.7864V6.35973C2.00171 5.98091 2.15219 5.61761 2.42006 5.34975ZM11.2859 18.5005V8.50223C11.2859 7.934 11.0601 7.38905 10.6584 6.98725C10.2566 6.58546 9.7116 6.35973 9.14338 6.35973L3.43004 6.35973V17.7864H9.14338C9.92045 17.7864 10.6714 18.0397 11.2859 18.5005Z" fill="#111112"/>
</svg>
