<svg width="18" height="18" viewBox="0 0 18 18" fill="none" xmlns="http://www.w3.org/2000/svg">
<path fill-rule="evenodd" clip-rule="evenodd" d="M6.02275 2.41475C6.24242 2.63442 6.24242 2.99058 6.02275 3.21025L3.0455 6.1875L6.02275 9.16475C6.24242 9.38442 6.24242 9.74058 6.02275 9.96025C5.80308 10.1799 5.44692 10.1799 5.22725 9.96025L1.85225 6.58525C1.63258 6.36558 1.63258 6.00942 1.85225 5.78975L5.22725 2.41475C5.44692 2.19508 5.80308 2.19508 6.02275 2.41475Z" fill="#111112"/>
<path fill-rule="evenodd" clip-rule="evenodd" d="M1.6875 6.1875C1.6875 5.87684 1.93934 5.625 2.25 5.625H11.8125C12.4035 5.625 12.9886 5.7414 13.5346 5.96754C14.0805 6.19369 14.5766 6.52515 14.9945 6.94302C15.4123 7.36088 15.7438 7.85696 15.97 8.40292C16.1961 8.94888 16.3125 9.53404 16.3125 10.125C16.3125 11.3185 15.8384 12.4631 14.9945 13.307C14.1506 14.1509 13.006 14.625 11.8125 14.625H5.625C5.31434 14.625 5.0625 14.3732 5.0625 14.0625C5.0625 13.7518 5.31434 13.5 5.625 13.5H11.8125C12.7076 13.5 13.566 13.1444 14.199 12.5115C14.8319 11.8786 15.1875 11.0201 15.1875 10.125C15.1875 9.68178 15.1002 9.24291 14.9306 8.83344C14.761 8.42396 14.5124 8.05191 14.199 7.73851C13.8856 7.42512 13.5135 7.17651 13.1041 7.00691C12.6946 6.8373 12.2557 6.75 11.8125 6.75H2.25C1.93934 6.75 1.6875 6.49816 1.6875 6.1875Z" fill="#111112"/>
</svg>
