<svg width="18" height="19" viewBox="0 0 18 19" fill="none" xmlns="http://www.w3.org/2000/svg">
<path fill-rule="evenodd" clip-rule="evenodd" d="M2.25 7.08328C2.25 6.46196 2.75368 5.95828 3.375 5.95828H14.625C15.2463 5.95828 15.75 6.46196 15.75 7.08328V14.9583C15.75 15.5796 15.2463 16.0833 14.625 16.0833H3.375C2.75368 16.0833 2.25 15.5796 2.25 14.9583V7.08328ZM14.625 7.08328H3.375V14.9583H14.625V7.08328Z" fill="#111112"/>
<path fill-rule="evenodd" clip-rule="evenodd" d="M9 2.02078C8.47786 2.02078 7.9771 2.2282 7.60788 2.59742C7.23867 2.96663 7.03125 3.46739 7.03125 3.98953V6.52078C7.03125 6.83144 6.77941 7.08328 6.46875 7.08328C6.15809 7.08328 5.90625 6.83144 5.90625 6.52078V3.98953C5.90625 3.16902 6.2322 2.38211 6.81239 1.80192C7.39258 1.22173 8.17949 0.895782 9 0.895782C9.82051 0.895782 10.6074 1.22173 11.1876 1.80192C11.7678 2.38211 12.0938 3.16902 12.0938 3.98953V6.52078C12.0938 6.83144 11.8419 7.08328 11.5312 7.08328C11.2206 7.08328 10.9688 6.83144 10.9688 6.52078V3.98953C10.9688 3.46739 10.7613 2.96663 10.3921 2.59742C10.0229 2.2282 9.52214 2.02078 9 2.02078Z" fill="#111112"/>
<path d="M8.99902 11.7239C9.38735 11.7239 9.70215 11.4091 9.70215 11.0208C9.70215 10.6325 9.38735 10.3177 8.99902 10.3177C8.6107 10.3177 8.2959 10.6325 8.2959 11.0208C8.2959 11.4091 8.6107 11.7239 8.99902 11.7239Z" fill="#111112"/>
</svg>
