<svg width="592" height="350" viewBox="0 0 592 350" fill="none" xmlns="http://www.w3.org/2000/svg">
<g clip-path="url(#clip0_4_3344)">
<line x1="3" y1="293.208" x2="3" y2="285.208" stroke="#3BB266"/>
<rect x="0.5" y="293.708" width="5" height="98" fill="#3BB266" stroke="#3BB266"/>
<line x1="9.74902" y1="284.858" x2="9.74902" y2="268.858" stroke="#3BB266"/>
<line x1="9.74902" y1="328.858" x2="9.74902" y2="302.858" stroke="#3BB266"/>
<rect x="7.74902" y="285.358" width="5" height="18" fill="#3BB266" stroke="#3BB266"/>
<line x1="17.998" y1="322.547" x2="17.998" y2="339.547" stroke="#E10000"/>
<rect x="14.998" y="279.047" width="5" height="43" fill="#E10000" stroke="#E10000"/>
<rect x="0.5" y="-0.5" width="5" height="208" transform="matrix(1 0 0 -1 21.7471 403.201)" fill="#3BB266" stroke="#3BB266"/>
<line x1="25.2471" y1="153.201" x2="25.2471" y2="195.201" stroke="#3BB266"/>
<line x1="46.9937" y1="229.242" x2="46.9937" y2="286.242" stroke="#3BB266"/>
<rect x="0.5" y="-0.5" width="5" height="118" transform="matrix(1 0 0 -1 43.4937 231.242)" fill="#3BB266" stroke="#3BB266"/>
<line x1="45.9937" y1="118.242" x2="45.9937" y2="70.2422" stroke="#3BB266"/>
<line x1="54.2427" y1="152.28" x2="54.2427" y2="191.28" stroke="#E10000"/>
<rect x="0.5" y="-0.5" width="5" height="55" transform="matrix(1 0 0 -1 50.7427 151.28)" fill="#E10000" stroke="#E10000"/>
<line x1="61.4917" y1="153.318" x2="61.4917" y2="167.318" stroke="#E10000"/>
<rect x="0.5" y="-0.5" width="5" height="17" transform="matrix(1 0 0 -1 57.9917 152.318)" fill="#E10000" stroke="#E10000"/>
<line x1="61.4917" y1="122.318" x2="61.4917" y2="136.318" stroke="#E10000"/>
<line x1="570.128" y1="109.253" x2="570.128" y2="125.253" stroke="#E10000"/>
<rect x="0.5" y="-0.5" width="5" height="2" transform="matrix(1 0 0 -1 566.628 108.253)" fill="#E10000" stroke="#E10000"/>
<line x1="570.128" y1="93.2526" x2="570.128" y2="107.253" stroke="#E10000"/>
<line x1="410.651" y1="78.2318" x2="410.651" y2="92.2318" stroke="#E10000"/>
<rect x="0.5" y="-0.5" width="5" height="17" transform="matrix(1 0 0 -1 407.151 77.2318)" fill="#E10000" stroke="#E10000"/>
<line x1="410.651" y1="47.2318" x2="410.651" y2="61.2318" stroke="#E10000"/>
<line x1="483.141" y1="62.2041" x2="483.141" y2="76.2041" stroke="#E10000"/>
<rect x="0.5" y="-0.5" width="5" height="7" transform="matrix(1 0 0 -1 479.641 61.2041)" fill="#E10000" stroke="#E10000"/>
<line x1="483.141" y1="44.2041" x2="483.141" y2="55.2041" stroke="#E10000"/>
<line x1="68.7407" y1="175.657" x2="68.7407" y2="238.657" stroke="#E10000"/>
<line x1="68.7407" y1="115.657" x2="68.7407" y2="162.657" stroke="#E10000"/>
<rect x="0.5" y="-0.5" width="5" height="17" transform="matrix(1 0 0 -1 65.2407 174.657)" fill="#E10000" stroke="#E10000"/>
<line x1="577.377" y1="113.464" x2="577.377" y2="120.464" stroke="#E10000"/>
<line x1="577.377" y1="94.4637" x2="577.377" y2="108.464" stroke="#E10000"/>
<rect x="0.5" y="-0.5" width="5" height="4" transform="matrix(1 0 0 -1 573.877 112.464)" fill="#E10000" stroke="#E10000"/>
<line x1="584.626" y1="127.097" x2="584.626" y2="143.097" stroke="#E10000"/>
<rect x="0.5" y="-0.5" width="5" height="19" transform="matrix(1 0 0 -1 581.126 130.097)" fill="#E10000" stroke="#E10000"/>
<line x1="584.626" y1="98.0969" x2="584.626" y2="112.097" stroke="#E10000"/>
<line x1="591.875" y1="89.6194" x2="591.875" y2="103.619" stroke="#3BB266"/>
<rect x="588.875" y="104.119" width="5" height="32" fill="#3BB266" stroke="#3BB266"/>
<line x1="417.9" y1="100.571" x2="417.9" y2="163.571" stroke="#E10000"/>
<line x1="417.9" y1="40.5709" x2="417.9" y2="87.5709" stroke="#E10000"/>
<rect x="0.5" y="-0.5" width="5" height="17" transform="matrix(1 0 0 -1 414.4 99.5709)" fill="#E10000" stroke="#E10000"/>
<line x1="490.39" y1="68.654" x2="490.39" y2="80.654" stroke="#E10000"/>
<line x1="490.39" y1="49.654" x2="490.39" y2="58.654" stroke="#E10000"/>
<rect x="487.39" y="59.154" width="5" height="9" fill="#E10000" stroke="#E10000"/>
<line x1="75.9897" y1="185.374" x2="75.9897" y2="199.374" stroke="#E10000"/>
<rect x="0.5" y="-0.5" width="5" height="17" transform="matrix(1 0 0 -1 72.4897 184.374)" fill="#E10000" stroke="#E10000"/>
<line x1="75.9897" y1="128.374" x2="75.9897" y2="167.374" stroke="#E10000"/>
<line x1="425.149" y1="110.287" x2="425.149" y2="124.287" stroke="#E10000"/>
<rect x="0.5" y="-0.5" width="5" height="17" transform="matrix(1 0 0 -1 421.649 109.287)" fill="#E10000" stroke="#E10000"/>
<line x1="425.149" y1="53.2872" x2="425.149" y2="92.2872" stroke="#E10000"/>
<rect x="494.639" y="66.7872" width="5" height="17" fill="#E10000" stroke="#E10000"/>
<line x1="497.639" y1="53.2872" x2="497.639" y2="66.2872" stroke="#E10000"/>
<rect x="0.5" y="-0.5" width="5" height="59" transform="matrix(1 0 0 -1 79.7388 221.889)" fill="#E10000" stroke="#E10000"/>
<line x1="83.2388" y1="222.889" x2="83.2388" y2="236.889" stroke="#E10000"/>
<rect x="0.5" y="-0.5" width="5" height="59" transform="matrix(1 0 0 -1 428.898 146.803)" fill="#E10000" stroke="#E10000"/>
<line x1="432.398" y1="147.803" x2="432.398" y2="161.803" stroke="#E10000"/>
<line x1="89.8838" y1="217.221" x2="89.8838" y2="231.221" stroke="#E10000"/>
<rect x="0.5" y="-0.5" width="5" height="17" transform="matrix(1 0 0 -1 86.3838 216.221)" fill="#E10000" stroke="#E10000"/>
<line x1="96.1328" y1="165.301" x2="96.1328" y2="142.301" stroke="#3BB266"/>
<rect x="0.5" y="-0.5" width="5" height="90" transform="matrix(1 0 0 -1 93.6328 253.301)" fill="#3BB266" stroke="#3BB266"/>
<line x1="438.647" y1="79.3149" x2="438.647" y2="56.3149" stroke="#3BB266"/>
<rect x="0.5" y="-0.5" width="5" height="90" transform="matrix(1 0 0 -1 436.147 167.315)" fill="#3BB266" stroke="#3BB266"/>
<line x1="118.484" y1="224.661" x2="118.484" y2="181.661" stroke="#3BB266"/>
<rect x="0.5" y="-0.5" width="5" height="27" transform="matrix(1 0 0 -1 115.984 246.661)" fill="#3BB266" stroke="#3BB266"/>
<line x1="125.732" y1="191.962" x2="125.732" y2="148.962" stroke="#3BB266"/>
<line x1="125.732" y1="249.962" x2="125.732" y2="206.962" stroke="#3BB266"/>
<rect x="0.5" y="-0.5" width="5" height="57" transform="matrix(1 0 0 -1 123.232 239.962)" fill="#3BB266" stroke="#3BB266"/>
<line x1="104.986" y1="188.796" x2="104.986" y2="202.796" stroke="#E10000"/>
<line x1="104.986" y1="130.796" x2="104.986" y2="170.796" stroke="#E10000"/>
<rect x="0.5" y="-0.5" width="5" height="17" transform="matrix(1 0 0 -1 101.486 187.796)" fill="#E10000" stroke="#E10000"/>
<line x1="111.235" y1="288.99" x2="111.235" y2="266.99" stroke="#E10000"/>
<rect x="0.5" y="-0.5" width="5" height="91" transform="matrix(1 0 0 -1 108.735 265.99)" fill="#E10000" stroke="#E10000"/>
<line x1="112.235" y1="151.99" x2="112.235" y2="175.99" stroke="#E10000"/>
<line x1="134.19" y1="292.623" x2="134.19" y2="270.623" stroke="#E10000"/>
<rect x="0.5" y="-0.5" width="5" height="91" transform="matrix(1 0 0 -1 131.69 269.623)" fill="#E10000" stroke="#E10000"/>
<line x1="135.19" y1="155.623" x2="135.19" y2="179.623" stroke="#E10000"/>
<line x1="445.896" y1="137.976" x2="445.896" y2="116.976" stroke="#E10000"/>
<rect x="0.5" y="-0.5" width="5" height="43" transform="matrix(1 0 0 -1 443.396 115.976)" fill="#E10000" stroke="#E10000"/>
<line x1="446.896" y1="62.9758" x2="446.896" y2="73.9758" stroke="#E10000"/>
<line x1="141.439" y1="348.332" x2="141.439" y2="326.332" stroke="#E10000"/>
<rect x="0.5" y="-0.5" width="5" height="91" transform="matrix(1 0 0 -1 138.939 325.332)" fill="#E10000" stroke="#E10000"/>
<line x1="142.439" y1="211.332" x2="142.439" y2="235.332" stroke="#E10000"/>
<line x1="148.688" y1="363.042" x2="148.688" y2="344.042" stroke="#E10000"/>
<rect x="0.5" y="-0.5" width="5" height="53" transform="matrix(1 0 0 -1 146.188 343.042)" fill="#E10000" stroke="#E10000"/>
<line x1="149.688" y1="267.042" x2="149.688" y2="291.042" stroke="#E10000"/>
<line x1="155.937" y1="341.446" x2="155.937" y2="329.446" stroke="#3BB266"/>
<rect x="0.5" y="-0.5" width="5" height="21" transform="matrix(1 0 0 -1 153.437 328.446)" fill="#3BB266" stroke="#3BB266"/>
<line x1="155.937" y1="307.446" x2="155.937" y2="289.446" stroke="#3BB266"/>
<line x1="300.917" y1="299.059" x2="300.917" y2="287.059" stroke="#3BB266"/>
<rect x="0.5" y="-0.5" width="5" height="21" transform="matrix(1 0 0 -1 298.417 286.059)" fill="#3BB266" stroke="#3BB266"/>
<line x1="300.917" y1="265.059" x2="300.917" y2="247.059" stroke="#3BB266"/>
<line x1="163.186" y1="338.73" x2="163.186" y2="316.73" stroke="#3BB266"/>
<rect x="0.5" y="-0.5" width="5" height="4" transform="matrix(1 0 0 -1 160.686 315.73)" fill="#3BB266" stroke="#3BB266"/>
<line x1="163.186" y1="311.73" x2="163.186" y2="276.73" stroke="#3BB266"/>
<line x1="308.166" y1="296.343" x2="308.166" y2="274.343" stroke="#3BB266"/>
<rect x="0.5" y="-0.5" width="5" height="4" transform="matrix(1 0 0 -1 305.666 273.343)" fill="#3BB266" stroke="#3BB266"/>
<line x1="308.166" y1="269.343" x2="308.166" y2="234.343" stroke="#3BB266"/>
<line x1="170.435" y1="335.097" x2="170.435" y2="313.097" stroke="#3BB266"/>
<rect x="0.5" y="-0.5" width="5" height="26" transform="matrix(1 0 0 -1 167.935 312.097)" fill="#3BB266" stroke="#3BB266"/>
<line x1="170.435" y1="308.097" x2="170.435" y2="273.097" stroke="#3BB266"/>
<line x1="315.414" y1="292.709" x2="315.414" y2="270.709" stroke="#3BB266"/>
<rect x="0.5" y="-0.5" width="5" height="26" transform="matrix(1 0 0 -1 312.914 269.709)" fill="#3BB266" stroke="#3BB266"/>
<line x1="315.414" y1="265.709" x2="315.414" y2="230.709" stroke="#3BB266"/>
<line x1="177.684" y1="322.232" x2="177.684" y2="318.232" stroke="#3BB266"/>
<rect x="0.5" y="-0.5" width="5" height="60" transform="matrix(1 0 0 -1 175.184 317.232)" fill="#3BB266" stroke="#3BB266"/>
<line x1="177.684" y1="257.232" x2="177.684" y2="245.232" stroke="#3BB266"/>
<line x1="322.663" y1="279.844" x2="322.663" y2="275.844" stroke="#3BB266"/>
<rect x="0.5" y="-0.5" width="5" height="60" transform="matrix(1 0 0 -1 320.163 274.844)" fill="#3BB266" stroke="#3BB266"/>
<line x1="322.663" y1="214.844" x2="322.663" y2="202.844" stroke="#3BB266"/>
<rect x="0.5" y="-0.5" width="5" height="47" transform="matrix(1 0 0 -1 182.433 286.028)" fill="#3BB266" stroke="#3BB266"/>
<line x1="184.933" y1="239.028" x2="184.933" y2="178.028" stroke="#3BB266"/>
<rect x="0.5" y="-0.5" width="5" height="47" transform="matrix(1 0 0 -1 327.412 243.64)" fill="#3BB266" stroke="#3BB266"/>
<line x1="329.912" y1="196.64" x2="329.912" y2="135.64" stroke="#3BB266"/>
<rect x="0.5" y="-0.5" width="5" height="108" transform="matrix(1 0 0 -1 537.633 249.64)" fill="#3BB266" stroke="#3BB266"/>
<line x1="541.133" y1="135.64" x2="541.133" y2="141.64" stroke="#3BB266"/>
<rect x="0.5" y="-0.5" width="5" height="60" transform="matrix(1 0 0 -1 508.637 75.6332)" fill="#3BB266" stroke="#3BB266"/>
<line x1="511.137" y1="15.6332" x2="511.137" y2="3.63322" stroke="#3BB266"/>
<rect x="0.5" y="-0.5" width="5" height="10" transform="matrix(1 0 0 -1 515.886 18)" fill="#3BB266" stroke="#3BB266"/>
<line x1="519.386" y1="-2.18557e-08" x2="519.386" y2="8" stroke="#3BB266"/>
<rect x="0.5" y="-0.5" width="5" height="13" transform="matrix(1 0 0 -1 189.682 226.194)" fill="#3BB266" stroke="#3BB266"/>
<line x1="193.182" y1="196.194" x2="193.182" y2="213.194" stroke="#3BB266"/>
<line x1="193.182" y1="219.194" x2="193.182" y2="236.194" stroke="#3BB266"/>
<rect x="0.5" y="-0.5" width="5" height="13" transform="matrix(1 0 0 -1 334.661 183.806)" fill="#3BB266" stroke="#3BB266"/>
<line x1="338.161" y1="153.806" x2="338.161" y2="170.806" stroke="#3BB266"/>
<line x1="338.161" y1="176.806" x2="338.161" y2="193.806" stroke="#3BB266"/>
<rect x="0.5" y="-0.5" width="5" height="13" transform="matrix(1 0 0 -1 544.882 150.502)" fill="#3BB266" stroke="#3BB266"/>
<line x1="548.382" y1="120.502" x2="548.382" y2="137.502" stroke="#3BB266"/>
<line x1="548.382" y1="143.502" x2="548.382" y2="160.502" stroke="#3BB266"/>
<rect x="0.5" y="-0.5" width="5" height="7" transform="matrix(1 0 0 -1 196.931 217.111)" fill="#3BB266" stroke="#3BB266"/>
<line x1="200.431" y1="195.111" x2="200.431" y2="212.111" stroke="#3BB266"/>
<line x1="200.431" y1="210.111" x2="200.431" y2="227.111" stroke="#3BB266"/>
<rect x="0.5" y="-0.5" width="5" height="7" transform="matrix(1 0 0 -1 341.91 174.723)" fill="#3BB266" stroke="#3BB266"/>
<line x1="345.41" y1="152.723" x2="345.41" y2="169.723" stroke="#3BB266"/>
<line x1="345.41" y1="167.723" x2="345.41" y2="184.723" stroke="#3BB266"/>
<rect x="0.5" y="-0.5" width="5" height="7" transform="matrix(1 0 0 -1 552.131 141.419)" fill="#3BB266" stroke="#3BB266"/>
<line x1="555.631" y1="119.419" x2="555.631" y2="136.419" stroke="#3BB266"/>
<line x1="555.631" y1="134.419" x2="555.631" y2="151.419" stroke="#3BB266"/>
<rect x="0.5" y="-0.5" width="5" height="40" transform="matrix(1 0 0 -1 204.18 222.917)" fill="#3BB266" stroke="#3BB266"/>
<line x1="207.68" y1="165.917" x2="207.68" y2="182.917" stroke="#3BB266"/>
<line x1="207.68" y1="223.917" x2="207.68" y2="240.917" stroke="#3BB266"/>
<rect x="0.5" y="-0.5" width="5" height="40" transform="matrix(1 0 0 -1 349.159 180.529)" fill="#3BB266" stroke="#3BB266"/>
<line x1="352.659" y1="123.529" x2="352.659" y2="140.529" stroke="#3BB266"/>
<line x1="352.659" y1="181.529" x2="352.659" y2="198.529" stroke="#3BB266"/>
<rect x="0.5" y="-0.5" width="5" height="40" transform="matrix(1 0 0 -1 559.379 147.225)" fill="#3BB266" stroke="#3BB266"/>
<line x1="562.879" y1="90.2249" x2="562.879" y2="107.225" stroke="#3BB266"/>
<line x1="562.879" y1="148.225" x2="562.879" y2="165.225" stroke="#3BB266"/>
<rect x="0.5" y="-0.5" width="5" height="13" transform="matrix(1 0 0 -1 363.657 117.197)" fill="#3BB266" stroke="#3BB266"/>
<line x1="367.157" y1="87.1972" x2="367.157" y2="104.197" stroke="#3BB266"/>
<line x1="367.157" y1="110.197" x2="367.157" y2="127.197" stroke="#3BB266"/>
<rect x="0.5" y="-0.5" width="5" height="13" transform="matrix(1 0 0 -1 450.645 106.903)" fill="#3BB266" stroke="#3BB266"/>
<line x1="454.145" y1="76.9031" x2="454.145" y2="93.9031" stroke="#3BB266"/>
<line x1="454.145" y1="99.9031" x2="454.145" y2="116.903" stroke="#3BB266"/>
<rect x="0.5" y="-0.5" width="5" height="7" transform="matrix(1 0 0 -1 370.906 108.114)" fill="#3BB266" stroke="#3BB266"/>
<line x1="374.406" y1="86.1142" x2="374.406" y2="103.114" stroke="#3BB266"/>
<line x1="374.406" y1="101.114" x2="374.406" y2="118.114" stroke="#3BB266"/>
<rect x="0.5" y="-0.5" width="5" height="7" transform="matrix(1 0 0 -1 457.894 97.8201)" fill="#3BB266" stroke="#3BB266"/>
<line x1="461.394" y1="75.8201" x2="461.394" y2="92.8201" stroke="#3BB266"/>
<line x1="461.394" y1="90.8201" x2="461.394" y2="107.82" stroke="#3BB266"/>
<rect x="0.5" y="-0.5" width="5" height="40" transform="matrix(1 0 0 -1 378.155 113.92)" fill="#3BB266" stroke="#3BB266"/>
<line x1="381.655" y1="56.9204" x2="381.655" y2="73.9204" stroke="#3BB266"/>
<line x1="381.655" y1="114.92" x2="381.655" y2="131.92" stroke="#3BB266"/>
<rect x="0.5" y="-0.5" width="5" height="40" transform="matrix(1 0 0 -1 465.143 103.626)" fill="#3BB266" stroke="#3BB266"/>
<line x1="468.643" y1="46.6263" x2="468.643" y2="63.6263" stroke="#3BB266"/>
<line x1="468.643" y1="104.626" x2="468.643" y2="121.626" stroke="#3BB266"/>
<rect x="0.5" y="-0.5" width="5" height="40" transform="matrix(1 0 0 -1 501.388 95.1488)" fill="#3BB266" stroke="#3BB266"/>
<line x1="504.888" y1="38.1488" x2="504.888" y2="55.1488" stroke="#3BB266"/>
<rect x="0.5" y="-0.5" width="5" height="13" transform="matrix(1 0 0 -1 385.404 80.2595)" fill="#3BB266" stroke="#3BB266"/>
<line x1="388.904" y1="50.2595" x2="388.904" y2="67.2595" stroke="#3BB266"/>
<line x1="388.904" y1="73.2595" x2="388.904" y2="90.2595" stroke="#3BB266"/>
<rect x="0.5" y="-0.5" width="5" height="13" transform="matrix(1 0 0 -1 472.392 69.9654)" fill="#3BB266" stroke="#3BB266"/>
<line x1="475.892" y1="39.9654" x2="475.892" y2="56.9654" stroke="#3BB266"/>
<line x1="475.892" y1="62.9654" x2="475.892" y2="79.9654" stroke="#3BB266"/>
<rect x="0.5" y="-0.5" width="5" height="7" transform="matrix(1 0 0 -1 392.653 71.1765)" fill="#3BB266" stroke="#3BB266"/>
<line x1="396.153" y1="49.1765" x2="396.153" y2="66.1765" stroke="#3BB266"/>
<line x1="396.153" y1="64.1765" x2="396.153" y2="81.1765" stroke="#3BB266"/>
<rect x="0.5" y="-0.5" width="5" height="40" transform="matrix(1 0 0 -1 399.902 76.9827)" fill="#3BB266" stroke="#3BB266"/>
<line x1="403.402" y1="19.9827" x2="403.402" y2="36.9827" stroke="#3BB266"/>
<line x1="403.402" y1="77.9827" x2="403.402" y2="94.9827" stroke="#3BB266"/>
<rect x="0.5" y="-0.5" width="5" height="47" transform="matrix(1 0 0 -1 211.429 218.997)" fill="#3BB266" stroke="#3BB266"/>
<line x1="214.929" y1="108.997" x2="214.929" y2="186.997" stroke="#3BB266"/>
<line x1="214.929" y1="217.997" x2="214.929" y2="234.997" stroke="#3BB266"/>
<rect x="0.5" y="-0.5" width="5" height="47" transform="matrix(1 0 0 -1 356.408 176.609)" fill="#3BB266" stroke="#3BB266"/>
<line x1="359.908" y1="66.609" x2="359.908" y2="144.609" stroke="#3BB266"/>
<line x1="359.908" y1="175.609" x2="359.908" y2="192.609" stroke="#3BB266"/>
<rect x="0.5" y="-0.5" width="5" height="13" transform="matrix(1 0 0 -1 218.678 166.851)" fill="#E10000" stroke="#E10000"/>
<line x1="222.178" y1="136.851" x2="222.178" y2="153.851" stroke="#E10000"/>
<line x1="222.178" y1="159.851" x2="222.178" y2="176.851" stroke="#E10000"/>
<rect x="0.5" y="-0.5" width="5" height="13" transform="matrix(1 0 0 -1 225.927 174.723)" fill="#E10000" stroke="#E10000"/>
<line x1="229.427" y1="144.723" x2="229.427" y2="161.723" stroke="#E10000"/>
<line x1="229.427" y1="167.723" x2="229.427" y2="184.723" stroke="#E10000"/>
<rect x="0.5" y="-0.5" width="5" height="32" transform="matrix(1 0 0 -1 233.175 202.201)" fill="#E10000" stroke="#E10000"/>
<line x1="236.675" y1="153.201" x2="236.675" y2="170.201" stroke="#E10000"/>
<line x1="236.675" y1="203.201" x2="236.675" y2="224.201" stroke="#E10000"/>
<rect x="0.5" y="-0.5" width="5" height="20" transform="matrix(1 0 0 -1 240.424 197.467)" fill="#3BB266" stroke="#3BB266"/>
<line x1="243.924" y1="160.467" x2="243.924" y2="177.467" stroke="#3BB266"/>
<rect x="0.5" y="-0.5" width="5" height="20" transform="matrix(1 0 0 -1 247.673 184.751)" fill="#3BB266" stroke="#3BB266"/>
<line x1="251.173" y1="147.751" x2="251.173" y2="164.751" stroke="#3BB266"/>
<line x1="251.173" y1="180.751" x2="251.173" y2="197.751" stroke="#3BB266"/>
<rect x="0.5" y="-0.5" width="5" height="54" transform="matrix(1 0 0 -1 283.918 266.588)" fill="#E10000" stroke="#E10000"/>
<line x1="287.418" y1="195.588" x2="287.418" y2="212.588" stroke="#E10000"/>
<line x1="287.418" y1="267.588" x2="287.418" y2="284.588" stroke="#E10000"/>
<rect x="0.5" y="-0.5" width="5" height="135" transform="matrix(1 0 0 -1 530.384 264.63)" fill="#E10000" stroke="#E10000"/>
<line x1="533.884" y1="112.63" x2="533.884" y2="129.63" stroke="#E10000"/>
<line x1="533.884" y1="265.63" x2="533.884" y2="282.63" stroke="#E10000"/>
<rect x="0.5" y="-0.5" width="5" height="54" transform="matrix(1 0 0 -1 291.167 298.682)" fill="#E10000" stroke="#E10000"/>
<line x1="294.667" y1="227.682" x2="294.667" y2="244.682" stroke="#E10000"/>
<line x1="294.667" y1="299.682" x2="294.667" y2="316.682" stroke="#E10000"/>
<rect x="0.5" y="-0.5" width="5" height="7" transform="matrix(1 0 0 -1 254.922 166.301)" fill="#3BB266" stroke="#3BB266"/>
<line x1="258.422" y1="142.301" x2="258.422" y2="159.301" stroke="#3BB266"/>
<line x1="258.422" y1="162.301" x2="258.422" y2="179.301" stroke="#3BB266"/>
<rect x="0.5" y="-0.5" width="5" height="20" transform="matrix(1 0 0 -1 262.171 172.595)" fill="#E10000" stroke="#E10000"/>
<line x1="264.671" y1="172.595" x2="264.671" y2="182.595" stroke="#E10000"/>
<line x1="32.4961" y1="252.1" x2="32.4961" y2="290.1" stroke="#3BB266"/>
<rect x="0.5" y="-0.5" width="5" height="63" transform="matrix(1 0 0 -1 28.9961 251.1)" fill="#3BB266" stroke="#3BB266"/>
<line x1="31.4961" y1="188.1" x2="31.4961" y2="164.1" stroke="#3BB266"/>
<line x1="39.7451" y1="190.834" x2="39.7451" y2="205.834" stroke="#3BB266"/>
<rect x="0.5" y="-0.5" width="5" height="16" transform="matrix(1 0 0 -1 36.2451 191.834)" fill="#3BB266" stroke="#3BB266"/>
<line x1="39.7451" y1="156.834" x2="39.7451" y2="175.834" stroke="#3BB266"/>
<rect x="0.5" y="-0.5" width="5" height="1" transform="matrix(1 0 0 -1 269.42 173.017)" fill="#E10000" stroke="#E10000"/>
<line x1="271.92" y1="174.017" x2="271.92" y2="191.017" stroke="#E10000"/>
<line x1="271.92" y1="155.017" x2="271.92" y2="172.017" stroke="#E10000"/>
<rect x="0.5" y="-0.5" width="5" height="65" transform="matrix(1 0 0 -1 276.669 204.882)" fill="#E10000" stroke="#E10000"/>
<line y1="-0.5" x2="8" y2="-0.5" transform="matrix(-4.37114e-08 -1 -1 4.37114e-08 278.669 139.882)" stroke="#E10000"/>
<rect x="0.5" y="-0.5" width="5" height="195" transform="matrix(1 0 0 -1 523.135 122.529)" fill="#E10000" stroke="#E10000"/>
</g>
<defs>
<clipPath id="clip0_4_3344">
<rect width="592" height="350" fill="white"/>
</clipPath>
</defs>
</svg>
