<svg width="40" height="40" viewBox="0 0 40 40" fill="none" xmlns="http://www.w3.org/2000/svg">
<rect width="40" height="40" rx="2" fill="#EC1076"/>
<path fill-rule="evenodd" clip-rule="evenodd" d="M26.313 26.25C25.5605 26.25 24.7342 25.8713 24.7342 24.735C24.7342 24.175 25.1717 22.4537 26.0442 19.57C26.223 19.125 26.3117 18.725 26.3117 18.3712C26.3117 17.69 25.7867 17.0088 24.8092 17.0088C24.2417 17.0088 23.0055 17.2337 22.6305 18.4462C22.3805 19.255 21.8042 21.4013 20.9017 24.8863C20.5517 25.795 19.9255 26.25 19.0242 26.25C17.6717 26.25 17.4455 25.265 17.4455 24.6587C17.4455 24.4187 17.8055 22.9675 18.5267 20.3087C18.808 19.4212 18.948 18.775 18.948 18.3712C18.948 17.765 18.498 17.0088 17.4455 17.0088C16.3942 17.0088 15.4167 17.765 14.9667 19.4313C14.6667 20.5438 14.2405 22.21 13.6892 24.4312C13.3892 25.6438 12.7117 26.25 11.6605 26.25C10.708 26.25 10.208 25.72 10.158 24.6587L11.8855 17.4625H8.05423C7.81681 17.4708 7.58014 17.4315 7.35814 17.3469C7.13614 17.2624 6.9333 17.1342 6.76155 16.9701C6.5898 16.806 6.45262 16.6092 6.35807 16.3912C6.26353 16.1733 6.21354 15.9386 6.21104 15.7011C6.20853 15.4635 6.25358 15.2279 6.34351 15.008C6.43344 14.7881 6.56645 14.5885 6.7347 14.4208C6.90296 14.253 7.10306 14.1207 7.32323 14.0315C7.5434 13.9423 7.77919 13.898 8.01673 13.9013H14.4405C15.3417 13.9013 15.893 14.3313 16.093 15.1888C16.9955 14.0538 18.1967 13.75 19.2505 13.75C20.3042 13.75 21.6542 14.3563 22.2555 15.72C23.0805 14.81 24.5092 13.75 26.538 13.75C28.4155 13.75 29.9942 15.0375 29.9942 17.31C29.9942 18.1687 29.568 19.9625 28.7167 22.69L32.013 22.6675C32.9767 22.6675 33.7505 23.47 33.7505 24.4587C33.7505 25.4475 32.9767 26.25 32.0217 26.25H26.313Z" fill="white"/>
</svg>
