<svg width="40" height="40" viewBox="0 0 40 40" fill="none" xmlns="http://www.w3.org/2000/svg">
<rect width="40" height="40" rx="2" fill="#43A047"/>
<path fill-rule="evenodd" clip-rule="evenodd" d="M14.2836 9.13271L18.8799 10.3636L19.909 6.53271L22.2072 7.15635L21.2181 10.8273L23.0908 11.3309L24.0781 7.62181L26.4163 8.24544L25.409 11.9764C25.409 11.9764 29.2272 12.8218 30.1272 15.9273C31.0272 19.0327 28.1545 20.6654 27.2726 20.7273C27.2726 20.7273 30.6199 22.5618 29.4708 26.1709C28.3217 29.78 24.7926 30.4254 21.0836 29.5982L20.0745 33.4691L17.7363 32.8454L18.7654 29.0273L16.909 28.5291L15.8763 32.3636L13.5581 31.74L14.5854 27.9218L9.86719 26.6491L11.0581 24.0091C11.0581 24.0091 12.3872 24.3727 12.8926 24.4927C13.3981 24.6127 13.7181 24.0891 13.8599 23.5654C14.0017 23.0418 16.1381 14.3636 16.3399 13.6491C16.5417 12.9345 16.4599 12.3764 15.6126 12.1564C14.7654 11.9364 13.6126 11.5927 13.6126 11.5927L14.2836 9.13271ZM18.9199 20.6254L17.6472 25.6854C17.6472 25.6854 23.9563 27.9636 24.7635 24.7582C25.5708 21.5527 18.9199 20.6254 18.9199 20.6254ZM19.5054 18.2254L20.7545 13.5891C20.7545 13.5891 26.1581 14.5564 25.4926 17.1364C24.8272 19.7164 21.6363 18.7273 19.5054 18.2254Z" fill="white"/>
</svg>
