<svg width="40" height="40" viewBox="0 0 40 40" fill="none" xmlns="http://www.w3.org/2000/svg">
<rect width="40" height="40" rx="2" fill="#345D9D"/>
<path d="M20.3636 20.4473L18.6018 26.3636H27.9763C28.0383 26.3605 28.1002 26.3704 28.1581 26.3927C28.216 26.4144 28.2691 26.4472 28.3145 26.4891C28.3596 26.5321 28.396 26.5833 28.4218 26.64C28.4491 26.6968 28.4639 26.7588 28.4654 26.8218V26.9764L27.649 29.7891C27.6141 29.9225 27.5337 30.0395 27.4218 30.12C27.3109 30.2014 27.1755 30.2424 27.0381 30.2364H12.6927L15.0963 22.0545L12.4072 22.8691L13.0181 20.9945L15.7072 20.1782L19.0909 8.66909C19.1275 8.53649 19.2083 8.42039 19.32 8.34C19.4303 8.25864 19.5647 8.21641 19.7018 8.22H23.3381C23.4002 8.21841 23.4619 8.2289 23.52 8.25091C23.5786 8.2722 23.6323 8.30496 23.6781 8.34727C23.724 8.38954 23.7606 8.44095 23.7854 8.49818C23.8115 8.55534 23.8257 8.61719 23.8272 8.68V8.83636L20.9745 18.5364L23.6654 17.72L23.0909 19.6727L20.3636 20.4473Z" fill="white"/>
</svg>
