<svg width="18" height="18" viewBox="0 0 18 18" fill="none" xmlns="http://www.w3.org/2000/svg">
<path fill-rule="evenodd" clip-rule="evenodd" d="M15.375 3.18749C15.6857 3.18749 15.9375 3.43933 15.9375 3.74999V15.75C15.9375 16.0607 15.6857 16.3125 15.375 16.3125C15.0643 16.3125 14.8125 16.0607 14.8125 15.75V3.74999C14.8125 3.43933 15.0643 3.18749 15.375 3.18749ZM12.375 6.18749C12.6857 6.18749 12.9375 6.43933 12.9375 6.74999V15.75C12.9375 16.0607 12.6857 16.3125 12.375 16.3125C12.0643 16.3125 11.8125 16.0607 11.8125 15.75V6.74999C11.8125 6.43933 12.0643 6.18749 12.375 6.18749ZM9.375 9.18749C9.68566 9.18749 9.9375 9.43933 9.9375 9.74999V15.75C9.9375 16.0607 9.68566 16.3125 9.375 16.3125C9.06434 16.3125 8.8125 16.0607 8.8125 15.75V9.74999C8.8125 9.43933 9.06434 9.18749 9.375 9.18749ZM6.375 11.8125C6.68566 11.8125 6.9375 12.0643 6.9375 12.375V15.75C6.9375 16.0607 6.68566 16.3125 6.375 16.3125C6.06434 16.3125 5.8125 16.0607 5.8125 15.75V12.375C5.8125 12.0643 6.06434 11.8125 6.375 11.8125ZM3.375 14.0625C3.68566 14.0625 3.9375 14.3143 3.9375 14.625V15.75C3.9375 16.0607 3.68566 16.3125 3.375 16.3125C3.06434 16.3125 2.8125 16.0607 2.8125 15.75V14.625C2.8125 14.3143 3.06434 14.0625 3.375 14.0625Z" fill="#111112"/>
<path fill-rule="evenodd" clip-rule="evenodd" d="M10.3125 2.99999C10.3125 2.68933 10.5643 2.43749 10.875 2.43749H13.5C13.7351 2.43749 13.9454 2.58371 14.0273 2.80409C14.1092 3.02447 14.0454 3.27253 13.8673 3.42604L2.99229 12.801C2.75699 13.0039 2.40181 12.9776 2.19897 12.7423C1.99612 12.507 2.02243 12.1518 2.25773 11.9489L11.986 3.56249H10.875C10.5643 3.56249 10.3125 3.31065 10.3125 2.99999Z" fill="#111112"/>
</svg>
