<svg width="18" height="18" viewBox="0 0 18 18" fill="none" xmlns="http://www.w3.org/2000/svg">
<path fill-rule="evenodd" clip-rule="evenodd" d="M14.6139 11.687C14.4843 14.7811 11.936 17.25 8.81007 17.25C5.60124 17.25 3 14.5613 3 11.4399C3 11.0227 2.99253 10.1889 3.6181 8.78214C3.99247 7.94024 4.22729 7.41134 4.35981 6.92787C4.43262 6.66215 4.57422 6.23999 4.9779 6.92787C5.21592 7.33346 5.22513 7.91682 5.22513 7.91682C5.22513 7.91682 6.11074 7.23722 6.70855 5.93892C7.58495 4.03563 6.8857 2.89791 6.64675 2.10675C6.56404 1.83306 6.51213 1.34118 7.07941 1.55047C7.65745 1.76377 9.18562 2.83351 9.98444 3.96103C11.1245 5.57023 11.5297 7.1133 11.5297 7.1133C11.5297 7.1133 11.8947 6.66023 12.0241 6.18616C12.1703 5.65083 12.1725 5.12063 12.6422 5.69175C13.0889 6.23486 13.7523 7.25552 14.1257 8.22586C14.8036 9.98798 14.6139 11.687 14.6139 11.687Z" fill="url(#paint0_linear_4_10159)"/>
<path fill-rule="evenodd" clip-rule="evenodd" d="M8.81008 17.25C6.59119 17.25 4.79248 15.4513 4.79248 13.2324C4.79248 11.8936 5.33201 11.0807 6.4549 9.9784C7.17386 9.2726 7.84678 8.40573 8.13277 7.81545C8.18908 7.69925 8.31721 7.0937 8.81125 7.80272C9.07042 8.17456 9.47669 8.83586 9.73721 9.40024C10.1863 10.3733 10.2935 11.3163 10.2935 11.3163C10.2935 11.3163 10.7336 11.057 11.0352 10.3892C11.1324 10.174 11.329 9.3592 11.8785 10.1738C12.2817 10.7717 12.8355 11.8465 12.8277 13.2324C12.8277 15.4513 11.0289 17.25 8.81008 17.25Z" fill="#FC9502"/>
<path fill-rule="evenodd" clip-rule="evenodd" d="M8.87169 12.8616C9.44342 12.8616 9.44342 13.9203 10.1697 15.3339C10.6533 16.2752 9.92992 17.25 8.87169 17.25C7.81345 17.25 7.26465 16.3922 7.26465 15.3339C7.26465 14.2757 8.29995 12.8616 8.87169 12.8616Z" fill="#FCE202"/>
<defs>
<linearGradient id="paint0_linear_4_10159" x1="8.81878" y1="17.2616" x2="8.81878" y2="1.5119" gradientUnits="userSpaceOnUse">
<stop stop-color="#FF4C0D"/>
<stop offset="1" stop-color="#FC9502"/>
</linearGradient>
</defs>
</svg>
