<svg width="24" height="24" viewBox="0 0 24 24" fill="none" xmlns="http://www.w3.org/2000/svg">
<path d="M12.1635 18.6312L16.8919 21.6269C17.4963 22.0098 18.2467 21.4403 18.0673 20.7348L16.7012 15.3608C16.6627 15.2111 16.6673 15.0536 16.7143 14.9064C16.7614 14.7592 16.8491 14.6283 16.9672 14.5287L21.2073 10.9996C21.7644 10.5359 21.4769 9.61127 20.7611 9.56481L15.2238 9.20545C15.0747 9.19479 14.9316 9.14198 14.8113 9.05318C14.691 8.96437 14.5984 8.84322 14.5443 8.70383L12.4792 3.50323C12.423 3.35528 12.3232 3.22791 12.193 3.13802C12.0627 3.04814 11.9082 3 11.75 3C11.5918 3 11.4373 3.04814 11.307 3.13802C11.1768 3.22791 11.077 3.35528 11.0208 3.50323L8.95568 8.70383C8.90157 8.84322 8.80897 8.96437 8.68868 9.05318C8.56838 9.14198 8.42533 9.19479 8.27618 9.20545L2.73894 9.56481C2.02315 9.61127 1.7356 10.5359 2.29272 10.9996L6.53278 14.5287C6.65095 14.6283 6.7386 14.7592 6.78566 14.9064C6.83272 15.0536 6.83727 15.2111 6.7988 15.3608L5.53188 20.3445C5.31667 21.1912 6.21715 21.8746 6.94243 21.4151L11.3365 18.6312C11.46 18.5525 11.6035 18.5107 11.75 18.5107C11.8965 18.5107 12.04 18.5525 12.1635 18.6312Z" fill="#FACC15"/>
</svg>
