<svg width="18" height="19" viewBox="0 0 18 19" fill="none" xmlns="http://www.w3.org/2000/svg">
<path fill-rule="evenodd" clip-rule="evenodd" d="M2.4375 2.58333C2.4375 2.27267 2.68934 2.02083 3 2.02083H15C15.3107 2.02083 15.5625 2.27267 15.5625 2.58333V4.45833C15.5625 4.76899 15.3107 5.02083 15 5.02083C14.6893 5.02083 14.4375 4.76899 14.4375 4.45833V3.14583H3.5625V4.45833C3.5625 4.76899 3.31066 5.02083 3 5.02083C2.68934 5.02083 2.4375 4.76899 2.4375 4.45833V2.58333Z" fill="#111112"/>
<path fill-rule="evenodd" clip-rule="evenodd" d="M9 2.39583C9.31066 2.39583 9.5625 2.64767 9.5625 2.95833V15.5208H11.625C11.9357 15.5208 12.1875 15.7727 12.1875 16.0833C12.1875 16.394 11.9357 16.6458 11.625 16.6458H6.375C6.06434 16.6458 5.8125 16.394 5.8125 16.0833C5.8125 15.7727 6.06434 15.5208 6.375 15.5208H8.4375V2.95833C8.4375 2.64767 8.68934 2.39583 9 2.39583Z" fill="#111112"/>
</svg>
