<svg width="18" height="18" viewBox="0 0 18 18" fill="none" xmlns="http://www.w3.org/2000/svg">
<path fill-rule="evenodd" clip-rule="evenodd" d="M11.25 3.375C11.25 3.06434 11.5018 2.8125 11.8125 2.8125H14.625C14.9357 2.8125 15.1875 3.06434 15.1875 3.375V6.1875C15.1875 6.49816 14.9357 6.75 14.625 6.75C14.3143 6.75 14.0625 6.49816 14.0625 6.1875V3.9375H11.8125C11.5018 3.9375 11.25 3.68566 11.25 3.375Z" fill="#111112"/>
<path fill-rule="evenodd" clip-rule="evenodd" d="M3.375 11.25C3.68566 11.25 3.9375 11.5018 3.9375 11.8125V14.0625H6.1875C6.49816 14.0625 6.75 14.3143 6.75 14.625C6.75 14.9357 6.49816 15.1875 6.1875 15.1875H3.375C3.06434 15.1875 2.8125 14.9357 2.8125 14.625V11.8125C2.8125 11.5018 3.06434 11.25 3.375 11.25Z" fill="#111112"/>
<path fill-rule="evenodd" clip-rule="evenodd" d="M14.625 11.25C14.9357 11.25 15.1875 11.5018 15.1875 11.8125V14.625C15.1875 14.9357 14.9357 15.1875 14.625 15.1875H11.8125C11.5018 15.1875 11.25 14.9357 11.25 14.625C11.25 14.3143 11.5018 14.0625 11.8125 14.0625H14.0625V11.8125C14.0625 11.5018 14.3143 11.25 14.625 11.25Z" fill="#111112"/>
<path fill-rule="evenodd" clip-rule="evenodd" d="M2.8125 3.375C2.8125 3.06434 3.06434 2.8125 3.375 2.8125H6.1875C6.49816 2.8125 6.75 3.06434 6.75 3.375C6.75 3.68566 6.49816 3.9375 6.1875 3.9375H3.9375V6.1875C3.9375 6.49816 3.68566 6.75 3.375 6.75C3.06434 6.75 2.8125 6.49816 2.8125 6.1875V3.375Z" fill="#111112"/>
</svg>
