<svg width="18" height="18" viewBox="0 0 18 18" fill="none" xmlns="http://www.w3.org/2000/svg">
<path fill-rule="evenodd" clip-rule="evenodd" d="M8.15625 2.81247C5.20498 2.81247 2.8125 5.20495 2.8125 8.15622C2.8125 11.1075 5.20498 13.5 8.15625 13.5C11.1075 13.5 13.5 11.1075 13.5 8.15622C13.5 5.20495 11.1075 2.81247 8.15625 2.81247ZM1.6875 8.15622C1.6875 4.58363 4.58366 1.68747 8.15625 1.68747C11.7288 1.68747 14.625 4.58363 14.625 8.15622C14.625 11.7288 11.7288 14.625 8.15625 14.625C4.58366 14.625 1.6875 11.7288 1.6875 8.15622Z" fill="#111112"/>
<path fill-rule="evenodd" clip-rule="evenodd" d="M11.9348 11.9351C12.1544 11.7154 12.5106 11.7154 12.7303 11.9351L16.1475 15.3523C16.3672 15.572 16.3672 15.9281 16.1475 16.1478C15.9278 16.3675 15.5717 16.3675 15.352 16.1478L11.9348 12.7306C11.7151 12.5109 11.7151 12.1547 11.9348 11.9351Z" fill="#111112"/>
</svg>
