<svg width="48" height="48" viewBox="0 0 48 48" fill="none" xmlns="http://www.w3.org/2000/svg">
<rect width="48" height="48" rx="4" fill="url(#paint0_linear_4_10115)"/>
<path d="M34.7137 20.522C36.3819 20.522 37.6567 21.1751 38.538 22.4813C39.4036 23.7561 39.7026 25.259 39.435 26.9902C39.199 28.5797 38.4986 29.9803 37.334 31.1921C36.1852 32.3882 34.7373 32.9862 32.9904 32.9862C31.4167 32.9862 30.2599 32.4275 29.5203 31.3102L28.458 37.3771H24.917L27.8206 20.8525H31.3616L31.1963 21.8439C32.1721 20.9626 33.3445 20.522 34.7137 20.522ZM33.6514 23.8741C32.8488 23.8741 32.1406 24.1259 31.5268 24.6295C30.9131 25.1331 30.5196 25.802 30.3465 26.6361L30.2993 26.8485C30.1891 27.6984 30.3465 28.3751 30.7714 28.8787C31.1963 29.3823 31.818 29.6341 32.6363 29.6341C33.4704 29.6341 34.1786 29.3744 34.7609 28.8551C35.3432 28.3357 35.7209 27.6354 35.894 26.7541C36.0514 25.8728 35.9176 25.1725 35.4927 24.6531C35.0836 24.1338 34.4698 23.8741 33.6514 23.8741Z" fill="#111112"/>
<path d="M17.2066 32.9862C15.2079 32.9862 13.6735 32.459 12.6033 31.4046C11.5331 30.3344 11.1476 28.9731 11.4466 27.3207L13.4295 16.1312H17.2066L15.2945 26.9902C15.0269 28.5325 15.7587 29.3036 17.4899 29.3036C19.221 29.3036 20.2204 28.5325 20.4879 26.9902L22.4 16.1312H26.1771L24.1941 27.3207C23.8636 29.162 23.0768 30.5705 21.8335 31.5462C20.6059 32.5062 19.0636 32.9862 17.2066 32.9862Z" fill="#111112"/>
<path d="M33.6644 19.4728C35.3326 19.4728 36.6073 20.1259 37.4887 21.4321C38.3542 22.7069 38.6533 24.2098 38.3857 25.941C38.1496 27.5305 37.4493 28.9311 36.2847 30.1429C35.1359 31.339 33.688 31.937 31.9411 31.937C30.3673 31.937 29.2106 31.3784 28.471 30.261L27.4087 36.3279H23.8677L26.7713 19.8033H30.3123L30.147 20.7947C31.1228 19.9134 32.2952 19.4728 33.6644 19.4728ZM32.6021 22.8249C31.7995 22.8249 31.0913 23.0767 30.4775 23.5803C29.8637 24.0839 29.4703 24.7528 29.2972 25.5869L29.25 25.7993C29.1398 26.6492 29.2972 27.3259 29.7221 27.8295C30.147 28.3331 30.7687 28.5849 31.587 28.5849C32.4211 28.5849 33.1293 28.3252 33.7116 27.8059C34.2939 27.2865 34.6716 26.5862 34.8447 25.7049C35.0021 24.8236 34.8683 24.1233 34.4434 23.6039C34.0342 23.0846 33.4205 22.8249 32.6021 22.8249Z" fill="white"/>
<path d="M16.1573 31.9371C14.1586 31.9371 12.6242 31.4098 11.554 30.3554C10.4838 29.2853 10.0983 27.9239 10.3973 26.2715L12.3802 15.082H16.1573L14.2451 25.941C13.9776 27.4833 14.7094 28.2544 16.4405 28.2544C18.1717 28.2544 19.171 27.4833 19.4386 25.941L21.3507 15.082H25.1278L23.1448 26.2715C22.8143 28.1128 22.0274 29.5213 20.7842 30.4971C19.5566 31.4571 18.0143 31.9371 16.1573 31.9371Z" fill="white"/>
<defs>
<linearGradient id="paint0_linear_4_10115" x1="24" y1="0" x2="24" y2="48" gradientUnits="userSpaceOnUse">
<stop stop-color="#613DE4"/>
<stop offset="1" stop-color="#421DC9"/>
</linearGradient>
</defs>
</svg>
