<svg width="18" height="18" viewBox="0 0 18 18" fill="none" xmlns="http://www.w3.org/2000/svg">
<path fill-rule="evenodd" clip-rule="evenodd" d="M9 2.25C9.31066 2.25 9.5625 2.50184 9.5625 2.8125V15.1875C9.5625 15.4982 9.31066 15.75 9 15.75C8.68934 15.75 8.4375 15.4982 8.4375 15.1875V2.8125C8.4375 2.50184 8.68934 2.25 9 2.25Z" fill="#3BB266"/>
<path fill-rule="evenodd" clip-rule="evenodd" d="M8.60225 2.41475C8.82192 2.19508 9.17808 2.19508 9.39775 2.41475L14.4602 7.47725C14.6799 7.69692 14.6799 8.05308 14.4602 8.27275C14.2406 8.49242 13.8844 8.49242 13.6648 8.27275L9 3.608L4.33525 8.27275C4.11558 8.49242 3.75942 8.49242 3.53975 8.27275C3.32008 8.05308 3.32008 7.69692 3.53975 7.47725L8.60225 2.41475Z" fill="#3BB266"/>
</svg>
