<svg width="18" height="18" viewBox="0 0 18 18" fill="none" xmlns="http://www.w3.org/2000/svg">
<path fill-rule="evenodd" clip-rule="evenodd" d="M11.9773 2.41475C12.1969 2.19508 12.5531 2.19508 12.7727 2.41475L16.1477 5.78975C16.3674 6.00942 16.3674 6.36558 16.1477 6.58525L12.7727 9.96025C12.5531 10.1799 12.1969 10.1799 11.9773 9.96025C11.7576 9.74058 11.7576 9.38442 11.9773 9.16475L14.9545 6.1875L11.9773 3.21025C11.7576 2.99058 11.7576 2.63442 11.9773 2.41475Z" fill="#111112"/>
<path fill-rule="evenodd" clip-rule="evenodd" d="M6.18749 6.75C5.74428 6.75 5.30541 6.8373 4.89594 7.00691C4.48647 7.17651 4.11441 7.42512 3.80101 7.73851C3.48762 8.05191 3.23901 8.42397 3.06941 8.83344C2.8998 9.24291 2.8125 9.68178 2.8125 10.125V10.125C2.8125 11.0201 3.16808 11.8786 3.80101 12.5115C4.43395 13.1444 5.29239 13.5 6.1875 13.5H12.375C12.6857 13.5 12.9375 13.7518 12.9375 14.0625C12.9375 14.3732 12.6857 14.625 12.375 14.625H6.1875C4.99403 14.625 3.84943 14.1509 3.00552 13.307C2.16161 12.4631 1.6875 11.3185 1.6875 10.125V10.125C1.6875 9.53405 1.8039 8.94888 2.03004 8.40292C2.25619 7.85696 2.58765 7.36088 3.00552 6.94302C3.42338 6.52515 3.91946 6.19369 4.46542 5.96754C5.01138 5.7414 5.59655 5.625 6.18749 5.625H15.75C16.0607 5.625 16.3125 5.87684 16.3125 6.1875C16.3125 6.49816 16.0607 6.75 15.75 6.75H6.18749Z" fill="#111112"/>
</svg>
