<svg width="18" height="18" viewBox="0 0 18 18" fill="none" xmlns="http://www.w3.org/2000/svg">
<path d="M9.75 2.25C9.75 1.83579 9.41421 1.5 9 1.5C8.58579 1.5 8.25 1.83579 8.25 2.25V6C8.25 6.41421 8.58579 6.75 9 6.75C9.41421 6.75 9.75 6.41421 9.75 6V2.25ZM9.75 12C9.75 11.5858 9.41421 11.25 9 11.25C8.58579 11.25 8.25 11.5858 8.25 12V15.75C8.25 16.1642 8.58579 16.5 9 16.5C9.41421 16.5 9.75 16.1642 9.75 15.75V12ZM6.75 9C6.75 8.58579 6.41421 8.25 6 8.25H2.25C1.83579 8.25 1.5 8.58579 1.5 9C1.5 9.41421 1.83579 9.75 2.25 9.75H6C6.41421 9.75 6.75 9.41421 6.75 9ZM16.5 9C16.5 8.58579 16.1642 8.25 15.75 8.25H12C11.5858 8.25 11.25 8.58579 11.25 9C11.25 9.41421 11.5858 9.75 12 9.75H15.75C16.1642 9.75 16.5 9.41421 16.5 9Z" fill="#111112"/>
</svg>
