<svg width="18" height="19" viewBox="0 0 18 19" fill="none" xmlns="http://www.w3.org/2000/svg">
<path fill-rule="evenodd" clip-rule="evenodd" d="M12.3523 1.43557C12.5719 1.2159 12.9281 1.2159 13.1477 1.43557L16.8977 5.18557C17.1174 5.40524 17.1174 5.76139 16.8977 5.98106L5.64775 17.2311C5.42808 17.4507 5.07192 17.4507 4.85225 17.2311L1.10225 13.4811C0.882583 13.2614 0.882583 12.9052 1.10225 12.6856L12.3523 1.43557ZM11.6705 3.70831L13.1477 5.18557C13.3674 5.40524 13.3674 5.76139 13.1477 5.98106C12.9281 6.20073 12.5719 6.20073 12.3523 5.98106L10.875 4.50381L9.79549 5.58331L11.6477 7.43556C11.8674 7.65524 11.8674 8.01139 11.6477 8.23106C11.4281 8.45073 11.0719 8.45073 10.8523 8.23106L9 6.37881L7.92049 7.45831L9.02275 8.56057C9.24242 8.78024 9.24242 9.13639 9.02275 9.35606C8.80308 9.57573 8.44692 9.57573 8.22725 9.35606L7.125 8.25381L6.02622 9.35259L7.89358 11.1814C8.11553 11.3988 8.11924 11.7549 7.90187 11.9769C7.6845 12.1988 7.32836 12.2026 7.10642 11.9852L5.23068 10.1481L4.1705 11.2083L5.64775 12.6856C5.86742 12.9052 5.86742 13.2614 5.64775 13.4811C5.42808 13.7007 5.07192 13.7007 4.85225 13.4811L3.375 12.0038L2.29549 13.0833L5.25 16.0378L15.7045 5.58331L12.75 2.62881L11.6705 3.70831Z" fill="#111112"/>
</svg>
