<svg width="18" height="18" viewBox="0 0 18 18" fill="none" xmlns="http://www.w3.org/2000/svg">
<path fill-rule="evenodd" clip-rule="evenodd" d="M6.28156 2.50048C6.38588 2.34399 6.56151 2.25 6.74959 2.25H11.2496C11.4377 2.25 11.6133 2.34399 11.7176 2.50048L12.6756 3.9375H14.625C15.0726 3.9375 15.5018 4.11529 15.8182 4.43176C16.1347 4.74822 16.3125 5.17745 16.3125 5.625V13.5C16.3125 13.9476 16.1347 14.3768 15.8182 14.6932C15.5018 15.0097 15.0726 15.1875 14.625 15.1875H3.375C2.92745 15.1875 2.49822 15.0097 2.18176 14.6932C1.86529 14.3768 1.6875 13.9476 1.6875 13.5V5.625C1.6875 5.17745 1.86529 4.74822 2.18176 4.43176C2.49822 4.11529 2.92745 3.9375 3.375 3.9375H5.32355L6.28156 2.50048ZM7.05063 3.375L6.09262 4.81202C5.98829 4.96851 5.81266 5.0625 5.62459 5.0625H3.375C3.22582 5.0625 3.08274 5.12176 2.97725 5.22725C2.87176 5.33274 2.8125 5.47582 2.8125 5.625V13.5C2.8125 13.6492 2.87176 13.7923 2.97725 13.8977C3.08274 14.0032 3.22582 14.0625 3.375 14.0625H14.625C14.7742 14.0625 14.9173 14.0032 15.0227 13.8977C15.1282 13.7923 15.1875 13.6492 15.1875 13.5V5.625C15.1875 5.47582 15.1282 5.33274 15.0227 5.22725C14.9173 5.12176 14.7742 5.0625 14.625 5.0625H12.3746C12.1865 5.0625 12.0109 4.96851 11.9066 4.81202L10.9485 3.375H7.05063Z" fill="#111112"/>
<path fill-rule="evenodd" clip-rule="evenodd" d="M9 7.3125C7.91269 7.3125 7.03125 8.19394 7.03125 9.28125C7.03125 10.3686 7.91269 11.25 9 11.25C10.0873 11.25 10.9688 10.3686 10.9688 9.28125C10.9688 8.19394 10.0873 7.3125 9 7.3125ZM5.90625 9.28125C5.90625 7.57262 7.29137 6.1875 9 6.1875C10.7086 6.1875 12.0938 7.57262 12.0938 9.28125C12.0938 10.9899 10.7086 12.375 9 12.375C7.29137 12.375 5.90625 10.9899 5.90625 9.28125Z" fill="#111112"/>
</svg>
