<svg width="18" height="18" viewBox="0 0 18 18" fill="none" xmlns="http://www.w3.org/2000/svg">
<path fill-rule="evenodd" clip-rule="evenodd" d="M8.44644 1.35425C8.61532 1.2588 8.80601 1.20863 9 1.20863C9.19399 1.20863 9.38468 1.2588 9.55356 1.35425L15.4598 4.69256C15.6333 4.7906 15.7775 4.93292 15.8779 5.105C15.9783 5.27707 16.0312 5.47272 16.0312 5.67195V12.328C16.0312 12.5273 15.9783 12.7229 15.8779 12.895C15.7775 13.0671 15.6333 13.2094 15.4598 13.3074L9.55356 16.6457C9.38468 16.7412 9.19399 16.7914 9 16.7914C8.80601 16.7914 8.61532 16.7412 8.44644 16.6457L2.54019 13.3074C2.36675 13.2094 2.22246 13.0671 2.12205 12.895C2.02165 12.7229 1.96875 12.5273 1.96875 12.328V5.67195C1.96875 5.47272 2.02165 5.27707 2.12205 5.105C2.22245 4.93292 2.36675 4.7906 2.54019 4.69256M8.44644 1.35425L2.54019 4.69256L8.44644 1.35425ZM9 2.33363L3.09375 5.67195L3.09375 12.328L9 15.6664L14.9062 12.328V5.67195L9 2.33363Z" fill="#111112"/>
<path fill-rule="evenodd" clip-rule="evenodd" d="M9 7.03125C7.91269 7.03125 7.03125 7.91269 7.03125 9C7.03125 10.0873 7.91269 10.9688 9 10.9688C10.0873 10.9688 10.9688 10.0873 10.9688 9C10.9688 7.91269 10.0873 7.03125 9 7.03125ZM5.90625 9C5.90625 7.29137 7.29137 5.90625 9 5.90625C10.7086 5.90625 12.0938 7.29137 12.0938 9C12.0938 10.7086 10.7086 12.0938 9 12.0938C7.29137 12.0938 5.90625 10.7086 5.90625 9Z" fill="#111112"/>
</svg>
