<svg width="24" height="24" viewBox="0 0 24 24" fill="none" xmlns="http://www.w3.org/2000/svg">
<path fill-rule="evenodd" clip-rule="evenodd" d="M6.375 9.75C6.375 9.33579 6.71079 9 7.125 9H16.875C17.2892 9 17.625 9.33579 17.625 9.75C17.625 10.1642 17.2892 10.5 16.875 10.5H7.125C6.71079 10.5 6.375 10.1642 6.375 9.75Z" fill="#111112"/>
<path fill-rule="evenodd" clip-rule="evenodd" d="M6.375 12.75C6.375 12.3358 6.71079 12 7.125 12H16.875C17.2892 12 17.625 12.3358 17.625 12.75C17.625 13.1642 17.2892 13.5 16.875 13.5H7.125C6.71079 13.5 6.375 13.1642 6.375 12.75Z" fill="#111112"/>
<path fill-rule="evenodd" clip-rule="evenodd" d="M2.68934 4.18934C2.97064 3.90804 3.35217 3.75 3.75 3.75H20.25C20.6478 3.75 21.0294 3.90804 21.3107 4.18934C21.592 4.47065 21.75 4.85218 21.75 5.25V19.5C21.75 19.7599 21.6154 20.0013 21.3943 20.138C21.1732 20.2746 20.8971 20.2871 20.6646 20.1708L18 18.8385L15.3354 20.1708C15.1243 20.2764 14.8757 20.2764 14.6646 20.1708L12 18.8385L9.33541 20.1708C9.12426 20.2764 8.87574 20.2764 8.66459 20.1708L6 18.8385L3.33541 20.1708C3.10292 20.2871 2.82681 20.2746 2.6057 20.138C2.38459 20.0013 2.25 19.7599 2.25 19.5V5.25C2.25 4.85217 2.40804 4.47064 2.68934 4.18934ZM20.25 5.25L3.75 5.25L3.75 18.2865L5.66459 17.3292C5.87574 17.2236 6.12426 17.2236 6.33541 17.3292L9 18.6615L11.6646 17.3292C11.8757 17.2236 12.1243 17.2236 12.3354 17.3292L15 18.6615L17.6646 17.3292C17.8757 17.2236 18.1243 17.2236 18.3354 17.3292L20.25 18.2865V5.25Z" fill="#111112"/>
</svg>
