<svg width="18" height="19" viewBox="0 0 18 19" fill="none" xmlns="http://www.w3.org/2000/svg">
<path fill-rule="evenodd" clip-rule="evenodd" d="M2.99663 3.06291C3.2265 2.85394 3.58225 2.87088 3.79122 3.10075L15.0412 15.4758C15.2502 15.7056 15.2333 16.0614 15.0034 16.2703C14.7735 16.4793 14.4178 16.4624 14.2088 16.2325L2.95879 3.85751C2.74982 3.62764 2.76676 3.27189 2.99663 3.06291Z" fill="#111112"/>
<path fill-rule="evenodd" clip-rule="evenodd" d="M7.52411 7.20711C7.73311 7.43696 7.7162 7.79272 7.48635 8.00171C7.04486 8.40314 6.7809 8.9635 6.75255 9.55953C6.72419 10.1556 6.93376 10.7385 7.33514 11.18C7.73653 11.6215 8.29687 11.8855 8.8929 11.9139C9.48893 11.9423 10.0718 11.7328 10.5134 11.3315C10.7433 11.1225 11.099 11.1395 11.308 11.3694C11.5169 11.5993 11.5 11.955 11.2701 12.164C10.6077 12.766 9.73338 13.0803 8.83934 13.0376C7.9453 12.995 7.10479 12.599 6.50271 11.9367C5.90063 11.2745 5.58628 10.4001 5.62882 9.50607C5.67135 8.61203 6.06728 7.77149 6.72952 7.16935C6.95937 6.96035 7.31512 6.97726 7.52411 7.20711Z" fill="#111112"/>
<path fill-rule="evenodd" clip-rule="evenodd" d="M5.70456 5.2355C5.84491 5.51265 5.73401 5.8511 5.45686 5.99145C4.12056 6.66815 3.16237 7.64637 2.53539 8.46462C2.22284 8.87252 1.99573 9.23661 1.84789 9.49636C1.81183 9.55972 1.78054 9.61677 1.75394 9.66661C1.82011 9.79055 1.91514 9.95885 2.04044 10.1578C2.32228 10.6054 2.75405 11.2031 3.35085 11.7998C4.54119 12.9901 6.37455 14.1661 9 14.1661H9.00448V14.1661C10.2331 14.1759 11.4463 13.8929 12.5438 13.3406C12.8213 13.2009 13.1595 13.3127 13.2992 13.5902C13.4388 13.8677 13.3271 14.2058 13.0496 14.3455C11.7932 14.9778 10.4043 15.3019 8.99777 15.2911C5.9994 15.2904 3.89597 13.9358 2.5554 12.5954C1.88657 11.9266 1.40428 11.2588 1.08846 10.7573C0.930275 10.5061 0.813048 10.2953 0.734397 10.1452C0.695051 10.0701 0.665296 10.01 0.644839 9.96753C0.634608 9.94628 0.626697 9.92942 0.62107 9.91725L0.614333 9.90255L0.612239 9.89791L0.611509 9.89628L0.611224 9.89564C0.611103 9.89536 0.61099 9.89511 1.125 9.66664C0.610972 9.43821 0.611052 9.43802 0.611138 9.43783L0.611332 9.4374L0.611806 9.43634L0.613094 9.43347L0.617038 9.42479L0.63044 9.39596C0.641838 9.37176 0.658194 9.33776 0.679623 9.29494C0.722465 9.20934 0.785671 9.08833 0.870171 8.93987C1.039 8.64325 1.29384 8.23527 1.6424 7.78037C2.33765 6.87302 3.41832 5.76274 4.94861 4.9878C5.22576 4.84745 5.56421 4.95835 5.70456 5.2355ZM1.125 9.66664L0.610972 9.43821C0.546336 9.58365 0.546343 9.74967 0.61099 9.89511L1.125 9.66664Z" fill="#111112"/>
<path fill-rule="evenodd" clip-rule="evenodd" d="M7.45407 4.16706C7.96523 4.0824 8.48253 4.04027 9.00066 4.04109C12 4.04123 14.104 5.39641 15.4448 6.73739C16.1137 7.40628 16.596 8.07421 16.9118 8.57585C17.07 8.82711 17.1872 9.03794 17.2658 9.1881C17.3052 9.26322 17.3349 9.32329 17.3554 9.36578C17.3656 9.38703 17.3735 9.40389 17.3792 9.41607L17.3859 9.43077L17.388 9.43541L17.3887 9.43704C17.3888 9.43731 17.3892 9.43821 16.8752 9.66664C16.3612 9.43816 16.3612 9.43804 16.3613 9.43793L16.357 9.44718C16.3531 9.45577 16.3464 9.46981 16.3372 9.4889C16.3187 9.52709 16.2895 9.58541 16.2494 9.66067C16.2484 9.66264 16.2473 9.66462 16.2463 9.66661C16.1801 9.54264 16.0851 9.37428 15.9597 9.17522C15.6779 8.72754 15.2461 8.1297 14.6493 7.53284C13.459 6.34236 11.6256 5.16609 9.0002 5.16609H8.99928C8.5432 5.16534 8.08785 5.20242 7.6379 5.27694C7.33141 5.32771 7.04181 5.1204 6.99105 4.81392C6.94028 4.50743 7.14759 4.21783 7.45407 4.16706ZM16.8752 9.66664L17.3892 9.89511C17.4539 9.74967 17.4539 9.58365 17.3892 9.43821L16.8752 9.66664ZM16.2463 9.66661C16.166 9.817 16.0433 10.0325 15.8757 10.2888C15.5353 10.8094 15.0142 11.4913 14.2928 12.1374C14.0614 12.3447 14.0418 12.7003 14.2491 12.9317C14.4563 13.1631 14.8119 13.1827 15.0434 12.9754C15.8549 12.2486 16.4373 11.4856 16.8173 10.9045C17.0076 10.6134 17.1483 10.3662 17.2424 10.1895C17.2895 10.1011 17.325 10.0302 17.3493 9.98008C17.3615 9.95502 17.3708 9.93513 17.3775 9.92084L17.3854 9.90363L17.3878 9.89827L17.3886 9.89641L17.3892 9.89511C17.3893 9.89497 17.3892 9.89511 16.8752 9.66664C16.3612 9.89507 16.3613 9.89528 16.3614 9.89548L16.358 9.88816C16.3548 9.88117 16.3494 9.86961 16.3417 9.85378C16.3265 9.8221 16.3024 9.77339 16.2692 9.71007C16.262 9.69626 16.2544 9.68177 16.2463 9.66661Z" fill="#111112"/>
<path fill-rule="evenodd" clip-rule="evenodd" d="M8.97699 6.79782C9.03558 6.49274 9.33039 6.29291 9.63548 6.35149C10.3527 6.48922 11.006 6.8558 11.4973 7.39623C11.9886 7.93666 12.2914 8.62182 12.3603 9.34893C12.3897 9.6582 12.1627 9.93268 11.8534 9.962C11.5442 9.99132 11.2697 9.76437 11.2404 9.4551C11.1944 8.97024 10.9925 8.51335 10.6649 8.15297C10.3372 7.79259 9.90162 7.54815 9.42333 7.45631C9.11824 7.39772 8.91841 7.10291 8.97699 6.79782Z" fill="#111112"/>
</svg>
