<svg width="18" height="19" viewBox="0 0 18 19" fill="none" xmlns="http://www.w3.org/2000/svg">
<path fill-rule="evenodd" clip-rule="evenodd" d="M9 2.72916C5.16852 2.72916 2.0625 5.83518 2.0625 9.66666C2.0625 13.4981 5.16852 16.6042 9 16.6042C12.8315 16.6042 15.9375 13.4981 15.9375 9.66666C15.9375 5.83518 12.8315 2.72916 9 2.72916ZM0.9375 9.66666C0.9375 5.21386 4.5472 1.60416 9 1.60416C13.4528 1.60416 17.0625 5.21386 17.0625 9.66666C17.0625 14.1195 13.4528 17.7292 9 17.7292C4.5472 17.7292 0.9375 14.1195 0.9375 9.66666Z" fill="#111112"/>
<path d="M12.1566 12.7061C12.1566 13.7441 10.3541 13.7213 8.99681 13.7213C7.63951 13.7213 5.73828 13.7441 5.73828 12.7061C5.73828 11.6682 7.63951 10.8268 8.99681 10.8268C10.3541 10.8268 12.1566 11.6682 12.1566 12.7061Z" fill="#111112"/>
<path d="M7.10168 8.33658C7.10168 8.83817 6.77549 9.24478 6.37311 9.24478C5.97073 9.24478 5.64453 8.83817 5.64453 8.33658C5.64453 7.83499 5.97073 7.42838 6.37311 7.42838C6.77549 7.42838 7.10168 7.83499 7.10168 8.33658Z" fill="#111112"/>
<path d="M12.3868 8.33658C12.3868 8.83817 12.0606 9.24478 11.6583 9.24478C11.2559 9.24478 10.9297 8.83817 10.9297 8.33658C10.9297 7.83499 11.2559 7.42838 11.6583 7.42838C12.0606 7.42838 12.3868 7.83499 12.3868 8.33658Z" fill="#111112"/>
</svg>
