<svg width="374" height="249" viewBox="0 0 374 249" fill="none" xmlns="http://www.w3.org/2000/svg">
<path d="M343.52 215.714C345.16 215.744 346.8 215.774 348.43 215.784C351.67 215.804 355.19 215.014 357.21 212.484C359.94 209.064 359.36 203.314 359.32 199.194C359.17 181.284 358.82 163.384 358.82 145.474C358.84 127.004 358.77 108.534 358.6 90.054C358.52 81.084 358.25 72.104 358.19 63.144C358.08 45.084 358.11 26.804 357.66 8.88402C357.6 6.41402 357.36 3.60402 355.41 2.08402C354.05 1.03402 352.21 0.904012 350.49 0.844012C343.16 0.574012 335.82 0.624009 328.48 0.794009C292.16 1.63401 255.83 2.13402 219.49 2.18402C201.72 2.20402 184 2.68402 166.25 2.24402C129.75 1.33402 93.2603 0.914009 56.7403 0.544009C52.5603 0.504009 48.3803 0.53401 44.1903 0.51401C38.9603 0.48401 33.6203 0.464011 28.5103 1.73401C23.3603 3.01401 20.8103 5.88402 20.1003 11.274C18.8703 20.634 20.4503 29.954 20.7503 39.314C21.9403 75.234 19.6403 111.144 20.5203 147.064C20.7303 156.764 20.6103 166.454 20.3103 176.144C20.0203 185.354 18.6403 194.784 20.0903 203.954C20.5103 206.584 21.2203 209.274 22.8903 211.344C24.7603 213.664 27.6503 214.984 30.5903 215.504C38.5303 216.934 47.8503 215.154 55.9203 214.884C65.1203 214.584 74.3303 214.344 83.5303 214.184C101.94 213.854 120.36 213.814 138.77 214.044C175.22 214.514 211.66 214.754 248.14 214.584C250.72 214.574 253.29 214.544 255.87 214.544C273.58 214.544 291.29 214.474 308.99 214.654C320.52 214.784 332.03 215.474 343.52 215.714Z" fill="#111112"/>
<path d="M348 211.314C351.15 211.514 355.62 210.564 358.43 212.214C359.72 212.964 360.6 214.244 361.43 215.474C363.58 218.644 365.74 221.814 367.89 224.984C369.86 227.884 372.1 230.754 372.94 234.234C374.6 241.094 368.84 244.834 362.79 245.704C351.06 247.374 338.31 247.554 326.48 247.624C299.4 247.774 272.32 248.144 245.24 248.144C229.73 248.144 214.26 248.264 198.77 248.164C171.3 247.994 143.83 247.874 116.38 247.874C105.73 247.874 95.0702 247.884 84.4202 247.884C70.8002 247.884 57.1802 247.894 43.5602 247.454C36.6902 247.234 29.8202 246.904 22.9702 246.404C16.9302 245.964 10.7702 245.974 5.20019 243.504C-1.50981 240.524 0.510193 232.914 4.21019 228.284C7.11019 224.654 10.0602 221.054 12.9202 217.394C15.1202 214.584 17.4202 211.824 20.8502 210.494C23.6302 209.414 26.6902 209.364 29.6702 209.334C56.9602 209.334 84.2302 208.794 111.53 208.844C125.39 208.874 139.24 208.954 153.1 209.104C166.88 209.254 180.72 209.904 194.49 209.704C199.23 209.634 203.99 209.714 208.74 209.764C223.4 209.914 238.05 210.064 252.71 210.224C266.22 210.364 279.73 210.504 293.24 210.644C304 210.754 314.76 210.864 325.52 210.974C331.93 211.044 338.33 211.104 344.74 211.174C345.83 211.184 346.92 211.244 348 211.314Z" fill="#111112"/>
</svg>
