<svg width="376" height="43" viewBox="0 0 376 43" fill="none" xmlns="http://www.w3.org/2000/svg">
<path d="M349 5.81402C351.44 5.92402 353.9 5.51402 356.33 5.81402C359.45 6.20402 360.73 8.61401 362.35 11.014C364.16 13.674 365.96 16.344 367.78 18.994C369.39 21.344 371.21 23.694 372.15 26.424C373.8 31.214 371.24 34.924 366.67 36.474C364.14 37.334 361.41 37.534 358.77 37.814C355.69 38.144 352.6 38.384 349.5 38.564C336.94 39.294 324.34 39.124 311.76 39.224C298.59 39.324 285.41 39.454 272.24 39.544C246.01 39.714 219.77 39.774 193.53 39.624C167.18 39.464 140.83 39.364 114.48 39.374C88.3504 39.384 62.1604 39.844 36.0404 38.624C29.8604 38.334 23.6604 37.984 17.4904 37.474C14.6304 37.234 11.7704 36.854 9.03043 35.974C6.87043 35.284 4.53043 34.324 3.66043 32.044C2.16043 28.104 5.03043 23.894 7.37043 20.984C9.34043 18.534 11.3104 16.104 13.2704 13.644C14.9504 11.534 16.5304 9.30401 18.5004 7.45401C23.1104 3.11401 29.5704 3.84401 35.4304 3.83401C42.0104 3.82401 48.5804 3.774 55.1604 3.724C68.3104 3.614 81.4704 3.464 94.6204 3.384C120.74 3.234 146.87 3.37402 172.98 3.99402C185.97 4.30402 198.95 4.154 211.94 4.294C225.13 4.434 238.32 4.56401 251.51 4.70401C277.82 4.97401 304.13 5.25402 330.44 5.52402C336.62 5.57402 342.84 5.43402 349 5.81402C350.93 5.93402 350.92 2.93402 349 2.81402C342.48 2.41402 335.91 2.56403 329.38 2.50403C322.44 2.43403 315.5 2.36403 308.56 2.28403C294.82 2.14403 281.09 2.004 267.35 1.854C253.52 1.714 239.7 1.56401 225.87 1.42401C212.36 1.28401 198.85 1.34402 185.34 1.21402C171.77 1.07402 158.2 0.624027 144.63 0.504027C130.89 0.384027 117.15 0.304023 103.41 0.344023C89.7704 0.374023 76.1204 0.524021 62.4804 0.654021C55.5404 0.714021 48.5904 0.774015 41.6504 0.804015C38.2404 0.824015 34.8304 0.824013 31.4204 0.834013C28.5104 0.844013 25.5004 0.844011 22.6804 1.64401C17.2304 3.19401 14.0704 7.86402 10.7204 12.064C7.48043 16.124 3.31043 20.104 1.35043 24.994C-0.0695716 28.524 -0.22957 32.764 2.50043 35.714C6.09043 39.594 12.9004 40.104 17.8204 40.494C44.6704 42.604 71.6004 42.384 98.5004 42.374C125.88 42.364 153.27 42.394 180.65 42.544C208.01 42.684 235.36 42.714 262.72 42.594C276.5 42.534 290.29 42.404 304.07 42.284C317.35 42.174 330.66 42.314 343.94 41.824C350.26 41.594 356.59 41.164 362.86 40.324C367.18 39.744 371.78 38.354 374.29 34.494C377.07 30.214 375.29 25.064 372.81 21.104C371.16 18.464 369.31 15.934 367.56 13.364C365.85 10.854 364.27 8.154 362.33 5.824C358.9 1.704 353.69 3.034 348.99 2.824C347.07 2.724 347.08 5.72402 349 5.81402Z" fill="#613DE4"/>
</svg>
