<svg width="374" height="41" viewBox="0 0 374 41" fill="none" xmlns="http://www.w3.org/2000/svg">
<path d="M348 3.31409C351.15 3.51409 355.62 2.56409 358.43 4.21409C359.72 4.96409 360.6 6.24406 361.43 7.47406C363.58 10.6441 365.74 13.8141 367.89 16.9841C369.86 19.8841 372.1 22.7541 372.94 26.2341C374.6 33.0941 368.84 36.8341 362.79 37.7041C351.06 39.3741 338.31 39.5541 326.48 39.6241C299.4 39.7741 272.32 40.1441 245.24 40.1441C229.73 40.1441 214.26 40.2641 198.77 40.1641C171.3 39.9941 143.83 39.8741 116.38 39.8741C105.73 39.8741 95.0702 39.8841 84.4202 39.8841C70.8002 39.8841 57.1802 39.8941 43.5602 39.4541C36.6902 39.2341 29.8202 38.9041 22.9702 38.4041C16.9302 37.9641 10.7702 37.9741 5.20019 35.5041C-1.50981 32.5241 0.510193 24.9141 4.21019 20.2841C7.11019 16.6541 10.0602 13.0541 12.9202 9.39408C15.1202 6.58408 17.4202 3.82408 20.8502 2.49408C23.6302 1.41408 26.6902 1.36408 29.6702 1.33408C56.9602 1.33408 84.2302 0.79409 111.53 0.84409C125.39 0.87409 139.24 0.954069 153.1 1.10407C166.88 1.25407 180.72 1.90408 194.49 1.70408C199.23 1.63408 203.99 1.71407 208.74 1.76407C223.4 1.91407 238.05 2.06406 252.71 2.22406C266.22 2.36406 279.73 2.50408 293.24 2.64408C304 2.75408 314.76 2.86406 325.52 2.97406C331.93 3.04406 338.33 3.10408 344.74 3.17408C345.83 3.18408 346.92 3.24409 348 3.31409Z" fill="#FBFCFE"/>
</svg>
