<svg width="341" height="217" viewBox="0 0 341 217" fill="none" xmlns="http://www.w3.org/2000/svg">
<path d="M324.52 215.714C326.16 215.744 327.8 215.774 329.43 215.784C332.67 215.804 336.19 215.014 338.21 212.484C340.94 209.064 340.36 203.314 340.32 199.194C340.17 181.284 339.82 163.384 339.82 145.474C339.84 127.004 339.77 108.534 339.6 90.054C339.52 81.084 339.25 72.104 339.19 63.144C339.08 45.084 339.11 26.804 338.66 8.88402C338.6 6.41402 338.36 3.60402 336.41 2.08402C335.05 1.03402 333.21 0.904012 331.49 0.844012C324.16 0.574012 316.82 0.624009 309.48 0.794009C273.16 1.63401 236.83 2.13402 200.49 2.18402C182.72 2.20402 165 2.68402 147.25 2.24402C110.75 1.33402 74.2603 0.914009 37.7403 0.544009C33.5603 0.504009 29.3803 0.53401 25.1903 0.51401C19.9603 0.48401 14.6203 0.464011 9.51033 1.73401C4.36033 3.01401 1.81033 5.88402 1.10033 11.274C-0.129669 20.634 1.45033 29.954 1.75033 39.314C2.94033 75.234 0.640329 111.144 1.52033 147.064C1.73033 156.764 1.61033 166.454 1.31033 176.144C1.02033 185.354 -0.359671 194.784 1.09033 203.954C1.51033 206.584 2.22033 209.274 3.89033 211.344C5.76033 213.664 8.65033 214.984 11.5903 215.504C19.5303 216.934 28.8503 215.154 36.9203 214.884C46.1203 214.584 55.3303 214.344 64.5303 214.184C82.9403 213.854 101.36 213.814 119.77 214.044C156.22 214.514 192.66 214.754 229.14 214.584C231.72 214.574 234.29 214.544 236.87 214.544C254.58 214.544 272.29 214.474 289.99 214.654C301.52 214.784 313.03 215.474 324.52 215.714Z" fill="#FBFCFE"/>
</svg>
