<svg width="344" height="219" viewBox="0 0 344 219" fill="none" xmlns="http://www.w3.org/2000/svg">
<path d="M326.52 218.214C330.21 218.284 334.1 218.654 337.58 217.194C340.57 215.944 342.51 213.484 343.3 210.374C344.11 207.194 343.88 203.874 343.83 200.624C343.76 196.004 343.74 191.384 343.68 186.764C343.46 168.374 343.35 149.994 343.32 131.604C343.29 112.924 343.19 94.254 342.84 75.584C342.5 57.244 342.65 38.894 342.37 20.544C342.3 16.244 342.51 11.794 342 7.52402C341.62 4.30402 340.08 1.51402 336.73 0.714018C335.03 0.304018 333.22 0.33401 331.49 0.28401C329.05 0.21401 326.6 0.174015 324.15 0.164015C319.47 0.144015 314.8 0.224013 310.12 0.334013C291.62 0.754013 273.12 1.09402 254.62 1.32402C235.89 1.56402 217.17 1.61401 198.44 1.70401C180.01 1.79401 161.6 2.03402 143.17 1.60402C106.07 0.734017 68.9302 0.0240099 31.8202 0.0340099C27.3402 0.0340099 22.8402 -0.115982 18.3702 0.214018C14.8302 0.474018 11.0502 0.904017 7.83022 2.49402C1.21022 5.74402 1.12022 13.904 1.15022 20.314C1.17022 24.774 1.56021 29.214 1.89021 33.654C2.23021 38.344 2.37022 43.034 2.47022 47.744C2.66022 56.944 2.65022 66.154 2.55022 75.354C2.36022 93.874 1.81022 112.394 1.83022 130.914C1.85022 149.374 2.49021 167.774 1.34021 186.224C1.06021 190.754 0.810214 195.304 1.07021 199.844C1.29021 203.654 1.67022 207.754 3.40022 211.224C7.05022 218.534 16.3502 218.824 23.4402 218.524C27.6402 218.344 31.8102 217.854 36.0002 217.574C40.5602 217.264 45.1402 217.224 49.7102 217.094C58.9102 216.844 68.1202 216.664 77.3302 216.554C114.42 216.114 151.52 217.014 188.62 217.144C207.06 217.204 225.5 217.094 243.94 217.084C262.44 217.074 280.97 216.834 299.46 217.344C308.48 217.564 317.49 218.024 326.52 218.214C328.45 218.254 328.45 215.254 326.52 215.214C317.5 215.024 308.48 214.564 299.46 214.314C290.37 214.064 281.27 214.074 272.18 214.054C254.34 214.014 236.5 214.104 218.67 214.134C182.56 214.214 146.45 213.674 110.34 213.444C92.3802 213.324 74.4102 213.474 56.4502 213.894C47.8102 214.094 39.1602 214.234 30.5502 214.984C26.4702 215.334 22.3702 215.694 18.2802 215.504C14.5702 215.334 10.4402 214.804 7.67021 212.064C4.75021 209.164 4.38022 204.324 4.11022 200.454C3.81022 196.134 4.00021 191.804 4.25021 187.484C4.78021 178.624 5.09021 169.784 5.13021 160.904C5.18021 151.904 4.87022 142.904 4.83022 133.914C4.79022 124.934 4.89022 115.954 5.04022 106.974C5.33022 88.904 5.78022 70.834 5.54022 52.764C5.42022 43.684 4.81021 34.684 4.31021 25.624C4.06021 21.174 3.93022 16.604 4.62022 12.184C5.05022 9.43402 6.14022 6.89401 8.62022 5.44401C11.8102 3.57401 16.0202 3.30401 19.6202 3.11401C23.9002 2.89401 28.1902 3.01401 32.4702 3.01401C41.4302 3.01401 50.3802 3.14402 59.3402 3.24402C77.3702 3.44402 95.3902 3.67401 113.42 3.98401C131.42 4.29401 149.43 4.94401 167.44 4.92401C185.44 4.89401 203.44 4.71401 221.44 4.61401C239.49 4.51401 257.55 4.30401 275.6 4.00401C293.65 3.70401 311.76 2.82401 329.82 3.23401C331.74 3.27401 333.79 3.16401 335.68 3.53401C337.68 3.93401 338.59 5.28401 338.94 7.20401C339.25 8.94401 339.18 10.774 339.22 12.534C339.27 14.864 339.32 17.194 339.35 19.534C339.5 28.584 339.55 37.644 339.6 46.704C339.68 64.644 340.04 82.574 340.18 100.514C340.32 118.514 340.25 136.524 340.35 154.524C340.4 163.474 340.51 172.434 340.62 181.384C340.72 189.514 341.18 197.734 340.88 205.854C340.77 208.934 340.2 212.344 337.29 214.014C334.12 215.834 330.02 215.274 326.53 215.204C324.59 215.174 324.59 218.174 326.52 218.214Z" fill="#613DE4"/>
</svg>
