<svg width="320" height="203" viewBox="0 0 320 203" fill="none" xmlns="http://www.w3.org/2000/svg">
<path d="M305.08 202.134C306.62 202.164 308.16 202.194 309.69 202.204C312.73 202.224 316.04 201.484 317.93 199.104C320.49 195.894 319.95 190.494 319.91 186.624C319.77 169.814 319.44 153.004 319.44 136.194C319.46 118.854 319.39 101.514 319.23 84.174C319.15 75.754 318.9 67.324 318.85 58.914C318.74 41.964 318.77 24.794 318.35 7.974C318.29 5.654 318.07 3.014 316.24 1.594C314.96 0.603995 313.24 0.484007 311.62 0.434007C304.74 0.184007 297.84 0.224004 290.96 0.384004C256.86 1.174 222.76 1.64401 188.65 1.68401C171.97 1.70401 155.33 2.15399 138.67 1.73399C104.4 0.873995 70.1501 0.493998 35.8701 0.143998C31.9401 0.103998 28.0201 0.134 24.0901 0.114C19.1801 0.0839997 14.1701 0.0639989 9.37007 1.254C4.54007 2.454 2.14007 5.15401 1.47007 10.214C0.310066 19.004 1.79007 27.754 2.08007 36.534C3.19007 70.244 1.04007 103.964 1.87007 137.684C2.07007 146.784 1.96006 155.884 1.67006 164.984C1.40006 173.634 0.100066 182.484 1.47007 191.094C1.86007 193.564 2.53006 196.084 4.10006 198.034C5.85006 200.214 8.57007 201.444 11.3301 201.944C18.7901 203.284 27.5301 201.614 35.1101 201.364C43.7501 201.074 52.3901 200.864 61.0301 200.704C78.3101 200.394 95.6001 200.354 112.88 200.574C147.1 201.014 181.31 201.244 215.55 201.084C217.97 201.074 220.39 201.044 222.81 201.044C239.43 201.044 256.06 200.984 272.68 201.154C283.48 201.264 294.29 201.914 305.08 202.134Z" fill="#613DE4"/>
</svg>
