<svg width="18" height="19" viewBox="0 0 18 19" fill="none" xmlns="http://www.w3.org/2000/svg">
<path fill-rule="evenodd" clip-rule="evenodd" d="M14.2273 1.76892C14.4469 1.54925 14.8031 1.54925 15.0227 1.76892L16.8977 3.64392C17.1174 3.86359 17.1174 4.21974 16.8977 4.43941L11.2727 10.0644C11.1673 10.1699 11.0242 10.2292 10.875 10.2292H9C8.68934 10.2292 8.4375 9.97732 8.4375 9.66666V7.79166C8.4375 7.64248 8.49676 7.49941 8.60225 7.39392L14.2273 1.76892ZM9.5625 8.02466V9.10416H10.642L15.7045 4.04166L14.625 2.96216L9.5625 8.02466Z" fill="#111112"/>
<path fill-rule="evenodd" clip-rule="evenodd" d="M5.86033 9.10415C5.90708 9.10417 5.95365 9.10419 6 9.10419C6.31066 9.10419 6.5625 9.35603 6.5625 9.66669C6.5625 9.97735 6.31066 10.2292 6 10.2292L5.95851 10.2292C4.81915 10.2292 3.79942 10.2291 3.05465 10.4328C2.68822 10.5331 2.44717 10.6686 2.29891 10.8283C2.16304 10.9746 2.0625 11.1864 2.0625 11.5417C2.0625 11.8715 2.16907 12.0781 2.3295 12.2325C2.50762 12.4039 2.79034 12.5456 3.18797 12.6486C3.98182 12.8543 5.00627 12.8542 5.95567 12.8542L14.25 12.8542C15.0876 12.8542 15.7989 13.0636 16.3079 13.509C16.8268 13.963 17.0625 14.5984 17.0625 15.2917C17.0626 15.8944 16.9674 16.5573 16.4759 17.0488C15.9891 17.5356 15.2392 17.7292 14.25 17.7292H6.75004C6.43938 17.7292 6.18754 17.4773 6.18754 17.1667C6.18754 16.856 6.43938 16.6042 6.75004 16.6042H14.25C15.1359 16.6042 15.511 16.4227 15.6804 16.2533C15.8452 16.0885 15.9376 15.814 15.9375 15.2917C15.9375 14.86 15.7982 14.5579 15.5671 14.3556C15.3261 14.1448 14.9124 13.9792 14.25 13.9792H6C6 13.9792 6 13.9792 6 13.9792C5.9636 13.9792 5.92672 13.9792 5.88942 13.9792C4.99097 13.9796 3.84194 13.9802 2.90578 13.7376C2.41278 13.6099 1.92207 13.4018 1.54941 13.0431C1.15906 12.6675 0.937501 12.1638 0.9375 11.5417C0.937499 10.9451 1.11821 10.4465 1.47452 10.0628C1.81845 9.69242 2.28053 9.47824 2.75785 9.34769C3.65199 9.10313 4.80367 9.10366 5.86033 9.10415Z" fill="#111112"/>
</svg>
